<?xml version="1.0" standalone="no"?>
<!DOCTYPE svg PUBLIC "-//W3C//DTD SVG 20010904//EN"
 "http://www.w3.org/TR/2001/REC-SVG-20010904/DTD/svg10.dtd">
<svg version="1.0" xmlns="http://www.w3.org/2000/svg"
 width="1026.000000pt" height="1026.000000pt" viewBox="0 0 1026.000000 1026.000000"
 preserveAspectRatio="xMidYMid meet">
<metadata>
Created by potrace 1.11, written by Peter Selinger 2001-2013
</metadata>
<g transform="translate(0.000000,1026.000000) scale(0.100000,-0.100000)"
fill="#000000" stroke="none">
<path d="M4927 8759 c7 -7 15 -10 18 -7 3 3 -2 9 -12 12 -14 6 -15 5 -6 -5z"/>
<path d="M5090 8759 c0 -5 5 -7 10 -4 6 3 10 8 10 11 0 2 -4 4 -10 4 -5 0 -10
-5 -10 -11z"/>
<path d="M5473 8745 c0 -8 4 -12 9 -9 5 3 6 10 3 15 -9 13 -12 11 -12 -6z"/>
<path d="M4300 8746 c0 -2 8 -10 18 -17 15 -13 16 -12 3 4 -13 16 -21 21 -21
13z"/>
<path d="M4715 8740 c-3 -5 -1 -10 4 -10 6 0 11 5 11 10 0 6 -2 10 -4 10 -3 0
-8 -4 -11 -10z"/>
<path d="M4775 8740 c-2 -3 5 -7 16 -7 10 -1 19 2 19 6 0 9 -29 10 -35 1z"/>
<path d="M4976 8741 c-4 -5 -4 -15 -1 -23 4 -10 -10 -13 -64 -13 -49 0 -67 3
-60 11 12 15 -25 11 -43 -4 -10 -8 -18 -8 -25 -1 -8 8 -13 7 -18 -2 -6 -8 -4
-10 6 -4 8 5 11 5 7 0 -11 -12 -88 -12 -88 0 0 6 -3 7 -8 0 -4 -5 -37 -11 -75
-13 -53 -2 -68 0 -73 12 -3 9 -11 16 -17 16 -7 0 -7 -4 1 -12 17 -17 15 -23
-10 -23 -13 -1 -35 -4 -50 -8 -23 -6 -28 -4 -28 10 -1 16 -1 17 -10 1 -7 -12
-21 -15 -50 -13 -22 2 -38 0 -36 -3 2 -4 -9 -7 -25 -8 -15 -1 -26 2 -24 6 3 5
-2 10 -10 13 -10 4 -12 1 -8 -11 3 -9 3 -14 -2 -10 -4 4 -16 3 -26 -2 -12 -7
-19 -6 -22 3 -4 9 -6 9 -6 0 -1 -7 -6 -13 -12 -13 -5 0 -7 6 -3 13 6 8 3 8 -9
-1 -9 -8 -21 -11 -27 -7 -5 3 -10 1 -10 -5 0 -6 -5 -8 -10 -5 -6 4 -7 11 -4
17 4 7 2 8 -5 4 -6 -4 -9 -12 -6 -17 4 -5 2 -9 -4 -9 -5 0 -13 5 -16 10 -5 8
-12 7 -22 -2 -9 -7 -28 -14 -42 -15 -30 -2 -86 -11 -86 -13 0 -1 -15 -3 -33
-5 -22 -2 -30 0 -26 8 3 7 0 5 -8 -3 -7 -8 -20 -16 -28 -17 -8 -1 -26 -4 -40
-7 -14 -2 -36 -6 -50 -8 -14 -2 -29 -7 -33 -13 -5 -6 -7 -1 -4 11 2 12 -1 21
-8 21 -7 0 -12 -7 -11 -15 1 -8 -7 -16 -16 -17 -15 -3 -17 2 -13 26 3 16 1 29
-4 29 -4 0 -8 -8 -8 -17 0 -38 -3 -45 -19 -39 -8 3 -12 2 -9 -4 4 -6 -7 -10
-24 -10 -18 0 -31 -5 -31 -12 0 -9 -4 -8 -10 2 -8 12 -10 12 -10 1 0 -8 -3
-11 -7 -8 -3 4 -13 1 -21 -6 -13 -10 -15 -9 -10 11 4 12 2 20 -3 16 -5 -3 -9
-12 -9 -20 0 -8 -5 -12 -10 -9 -6 4 -7 11 -4 17 4 7 2 8 -5 4 -6 -4 -8 -12 -5
-18 5 -8 -4 -9 -27 -5 -24 5 -30 4 -19 -3 8 -5 13 -10 10 -11 -3 0 -14 -2 -25
-4 -10 -2 -26 2 -34 8 -10 8 -13 9 -8 0 4 -7 -5 -15 -25 -22 -37 -13 -41 -13
-34 -3 3 5 -1 9 -8 9 -8 0 -12 -7 -8 -15 3 -9 1 -13 -4 -9 -6 3 -16 2 -24 -3
-9 -5 -20 -4 -29 3 -12 9 -13 9 -7 0 5 -9 -1 -13 -18 -13 -14 0 -26 -5 -26
-11 0 -8 -6 -7 -17 2 -9 8 -14 9 -10 3 9 -15 -17 -26 -40 -17 -11 4 -14 3 -9
-5 5 -8 2 -10 -8 -6 -9 3 -16 1 -16 -5 0 -6 -5 -11 -11 -11 -5 0 -7 6 -3 13 5
7 1 6 -10 -3 -21 -16 -49 -23 -40 -9 3 5 0 9 -5 9 -6 0 -11 -6 -11 -13 0 -8
-6 -14 -12 -14 -7 -1 -39 -10 -71 -22 -32 -11 -55 -16 -52 -11 3 6 -1 7 -10 4
-9 -4 -13 -9 -11 -12 3 -3 -22 -15 -57 -26 -40 -14 -65 -17 -69 -11 -5 6 -8 5
-8 -3 0 -19 -42 -32 -60 -19 -8 6 -12 7 -8 3 11 -13 -11 -36 -28 -29 -8 3 -14
1 -14 -5 0 -15 -43 -23 -52 -9 -5 8 -8 7 -8 -5 0 -10 -5 -18 -11 -18 -11 0
-67 -23 -102 -41 -10 -5 -22 -7 -27 -4 -6 4 -10 -2 -10 -12 0 -14 -2 -15 -9
-5 -7 11 -9 11 -14 -2 -4 -9 -13 -13 -22 -10 -8 3 -12 10 -9 15 3 5 0 9 -6 9
-7 0 -9 -8 -5 -22 6 -16 4 -20 -8 -15 -9 3 -18 -1 -21 -9 -3 -9 -10 -13 -15
-9 -5 3 -12 1 -16 -5 -4 -6 -22 -9 -40 -7 -20 3 -32 0 -29 -5 3 -5 12 -7 20
-4 8 3 14 1 14 -4 0 -6 -9 -10 -20 -10 -11 0 -20 -4 -20 -10 0 -5 -7 -7 -15
-4 -9 4 -18 -1 -21 -11 -5 -13 -9 -14 -15 -3 -7 11 -9 11 -9 -1 0 -11 -3 -11
-16 -1 -8 8 -14 9 -13 4 5 -26 -2 -36 -22 -31 -12 3 -18 3 -15 0 7 -8 -25 -32
-42 -33 -7 0 -10 5 -6 12 4 7 3 8 -5 4 -6 -4 -9 -11 -6 -16 3 -5 -8 -16 -24
-24 -27 -15 -30 -14 -45 7 l-17 22 12 -23 c12 -27 3 -44 -12 -22 -9 12 -10 12
-5 -2 5 -18 -25 -43 -38 -31 -3 3 -6 1 -6 -6 0 -7 -13 -17 -30 -22 -16 -6 -30
-15 -30 -21 0 -5 -4 -7 -9 -4 -5 3 -14 -1 -21 -9 -6 -7 -19 -11 -27 -8 -11 4
-14 2 -9 -5 4 -7 1 -12 -8 -12 -9 0 -16 -5 -16 -12 0 -6 -3 -8 -7 -5 -3 4 -11
0 -17 -9 -6 -8 -21 -16 -33 -16 -11 -1 -19 -7 -16 -13 2 -7 -3 -12 -12 -12 -9
0 -14 6 -11 12 2 6 -1 12 -8 12 -8 0 -11 -10 -8 -25 3 -16 1 -23 -6 -18 -6 3
-14 0 -19 -7 -11 -19 -51 -39 -63 -32 -5 3 -7 0 -4 -8 3 -8 -6 -18 -21 -25
-14 -6 -25 -17 -25 -23 0 -6 -9 -9 -20 -6 -11 3 -18 1 -15 -3 3 -5 -8 -18 -24
-29 -31 -22 -46 -27 -36 -12 3 5 1 12 -4 15 -4 3 -8 -2 -8 -12 0 -35 -3 -42
-18 -42 -8 0 -15 -5 -15 -11 0 -5 -4 -8 -8 -5 -5 3 -15 -3 -24 -12 -30 -34
-68 -62 -85 -62 -9 0 -13 -3 -10 -7 10 -9 -13 -34 -25 -27 -5 3 -4 13 4 22 9
12 6 11 -10 -2 -23 -20 -30 -32 -12 -21 16 10 12 -12 -6 -29 -18 -18 -39 -22
-28 -4 4 7 3 8 -4 4 -6 -4 -9 -13 -6 -20 6 -15 -11 -24 -43 -21 -12 1 -20 -2
-17 -7 4 -5 12 -7 20 -4 8 3 14 1 14 -4 0 -9 -15 -14 -33 -11 -5 1 -6 -3 -2
-9 3 -5 -1 -13 -9 -16 -9 -3 -13 -11 -9 -18 3 -6 3 -8 -2 -4 -4 4 -14 0 -20
-9 -11 -15 -15 -16 -31 -3 -17 13 -18 13 -7 0 8 -10 9 -21 2 -30 -8 -13 -10
-13 -19 0 -8 12 -10 10 -8 -9 2 -13 -3 -26 -10 -28 -8 -3 -10 2 -6 14 5 17 5
17 -6 0 -6 -9 -9 -21 -6 -25 2 -4 -2 -16 -10 -27 -8 -10 -14 -15 -14 -11 0 5
-13 -6 -30 -24 -16 -18 -30 -35 -30 -39 0 -4 -18 -24 -39 -45 -31 -30 -44 -37
-62 -32 l-24 7 24 -14 c24 -14 24 -15 4 -25 -11 -6 -23 -9 -26 -6 -3 3 -3 -4
0 -16 5 -17 2 -21 -13 -18 -13 2 -19 -3 -19 -17 0 -11 -6 -19 -13 -17 -8 1
-11 -1 -8 -6 8 -13 -24 -53 -36 -46 -7 5 -8 2 -3 -6 5 -8 -1 -20 -16 -32 -13
-11 -18 -17 -11 -13 8 4 -5 -20 -28 -54 -23 -34 -47 -61 -53 -61 -5 0 -8 -3
-4 -6 3 -3 -5 -24 -19 -45 -13 -21 -24 -43 -24 -49 0 -5 -5 -9 -11 -7 -6 1
-14 -4 -17 -12 -3 -9 0 -11 9 -7 8 4 7 2 -2 -6 -16 -13 -19 -19 -19 -38 0 -5
-4 -10 -10 -10 -5 0 -7 7 -4 15 4 8 2 15 -4 15 -11 0 -11 -18 1 -37 4 -6 3
-14 -2 -17 -5 -4 -12 0 -15 6 -2 7 -4 2 -3 -12 1 -17 -3 -24 -12 -22 -12 3
-12 0 -2 -11 7 -9 8 -16 2 -19 -5 -1 -11 -10 -13 -18 -7 -32 -36 -75 -49 -72
-11 3 -11 1 -2 -9 9 -9 9 -18 -3 -40 -8 -16 -11 -29 -8 -29 4 0 -1 -9 -10 -19
-10 -11 -15 -25 -11 -30 3 -6 2 -11 -4 -11 -5 0 -15 8 -20 18 -6 9 -11 12 -11
6 0 -6 7 -17 15 -24 10 -8 12 -17 6 -24 -6 -7 -13 -27 -16 -46 -7 -40 -20 -57
-29 -41 -4 6 -12 11 -19 11 -6 0 -1 -7 11 -16 18 -12 20 -19 12 -29 -7 -8 -9
-19 -5 -25 3 -5 -1 -10 -9 -10 -9 0 -16 -5 -16 -11 0 -5 6 -7 13 -3 9 5 9 4 0
-6 -6 -7 -9 -18 -7 -25 3 -7 0 -16 -7 -21 -7 -4 -10 -3 -5 4 3 6 1 14 -5 18
-7 4 -9 3 -5 -4 3 -6 -2 -16 -11 -22 -17 -10 -16 -10 2 -8 14 2 19 -2 16 -12
-2 -8 -3 -23 -3 -33 0 -9 -3 -15 -8 -12 -5 3 -12 0 -16 -6 -4 -7 -3 -9 4 -5 6
3 13 2 17 -4 3 -5 1 -10 -5 -10 -6 0 -9 -4 -6 -9 9 -15 -5 -42 -18 -34 -6 4
-4 -2 4 -12 10 -13 11 -19 4 -22 -7 -2 -10 -13 -7 -23 5 -18 -28 -73 -42 -70
-4 1 -9 -1 -12 -3 -3 -3 2 -4 11 -3 9 1 23 11 32 22 15 19 16 19 9 -1 -4 -11
-8 -39 -9 -62 0 -24 -4 -43 -8 -43 -4 0 -5 -7 -1 -16 3 -9 0 -20 -8 -25 -10
-6 -10 -9 -1 -9 6 0 12 -5 12 -11 0 -6 -8 -8 -18 -5 -14 5 -13 3 3 -10 20 -15
20 -15 1 -30 -15 -10 -16 -14 -5 -14 9 0 15 -10 15 -25 0 -19 -4 -24 -15 -20
-10 3 -9 0 3 -10 18 -14 15 -19 -9 -16 -5 1 -1 -6 9 -14 11 -8 14 -15 8 -15
-7 0 -12 -5 -12 -11 0 -5 3 -8 8 -6 4 3 7 -8 7 -23 1 -16 -3 -26 -7 -24 -4 3
-8 0 -8 -5 0 -6 6 -11 13 -11 8 0 7 -4 -3 -10 -8 -5 -10 -10 -5 -10 6 0 11 -9
12 -20 1 -11 -2 -20 -6 -20 -4 0 -8 -7 -8 -15 0 -9 4 -11 11 -6 8 7 11 -4 11
-35 0 -24 3 -44 8 -44 4 0 5 -5 2 -10 -5 -8 -12 -7 -23 2 -15 11 -15 11 -5 -3
7 -9 10 -19 6 -23 -4 -4 1 -4 12 0 17 7 18 6 7 -8 -7 -9 -9 -18 -4 -20 15 -5
23 -68 9 -68 -6 0 -3 -6 8 -12 19 -11 19 -11 0 -19 -17 -7 -18 -8 -2 -8 11 -1
17 -9 17 -23 0 -13 7 -44 15 -70 8 -27 11 -48 7 -48 -4 0 0 -5 8 -10 13 -9 11
-13 -10 -31 -23 -18 -23 -19 -2 -9 22 11 27 5 23 -27 -1 -7 3 -13 9 -13 5 0
10 -11 10 -25 0 -14 5 -25 11 -25 5 0 8 -4 4 -10 -3 -5 -13 -7 -23 -4 -14 5
-14 4 -2 -4 8 -6 17 -9 21 -6 4 2 12 -9 17 -25 12 -34 0 -51 -31 -45 -11 1
-16 0 -13 -4 11 -11 46 -12 46 -2 0 6 5 10 11 10 6 0 8 -8 4 -19 -3 -11 0 -23
6 -27 8 -5 10 -3 4 7 -5 8 -4 11 1 6 5 -5 10 -13 10 -18 1 -5 3 -11 4 -14 1
-3 3 -8 4 -12 1 -5 5 -14 9 -21 5 -6 5 -12 0 -12 -4 0 -1 -5 7 -10 13 -9 12
-13 -5 -26 -19 -16 -19 -16 7 -10 21 5 26 3 22 -8 -3 -7 2 -20 10 -29 8 -8 13
-17 10 -19 -2 -3 2 -11 11 -18 18 -15 20 -44 3 -35 -7 3 -3 -2 10 -11 22 -17
32 -51 10 -38 -7 4 -8 3 -4 -4 4 -6 13 -9 22 -5 8 3 14 2 12 -3 -3 -10 31 -65
46 -75 13 -10 -32 -31 -47 -23 -9 5 -9 4 -1 -5 9 -9 17 -10 31 -2 23 12 45 -3
36 -26 -3 -7 -2 -13 3 -12 21 4 26 -2 14 -16 -11 -13 -10 -14 3 -9 12 4 20 -3
29 -22 7 -16 19 -36 26 -44 36 -42 62 -79 62 -86 0 -5 -4 -3 -9 4 -7 11 -9 11
-14 0 -3 -9 3 -14 15 -15 30 -3 35 -13 14 -29 -11 -8 -15 -14 -9 -14 7 0 15 5
18 10 10 16 20 12 37 -17 9 -16 31 -43 48 -60 18 -18 29 -33 25 -33 -4 0 -2
-7 5 -15 7 -8 16 -13 20 -10 4 3 11 -2 14 -11 3 -8 2 -12 -4 -9 -6 3 -10 1
-10 -4 0 -6 10 -11 23 -11 18 0 19 -2 7 -10 -13 -8 -13 -10 2 -10 9 0 25 -11
36 -25 11 -13 23 -21 28 -17 5 4 0 -3 -10 -15 -18 -22 -18 -23 9 -33 15 -6 33
-13 39 -16 6 -3 2 2 -8 10 -11 9 -27 16 -35 16 -11 0 -12 3 -3 12 8 8 27 -5
78 -56 37 -36 64 -69 61 -73 -4 -3 -9 2 -13 11 -6 16 -24 13 -24 -5 0 -6 4 -8
8 -5 5 3 18 -5 30 -17 28 -30 50 -47 59 -47 4 0 -8 14 -27 30 -19 16 -29 30
-22 30 6 0 12 -4 12 -10 0 -5 5 -10 10 -10 13 0 50 -37 50 -51 0 -5 4 -8 9 -5
4 3 17 -4 27 -15 16 -18 16 -19 1 -13 -9 3 -17 11 -17 17 0 6 -3 7 -7 4 -3 -4
-12 -2 -20 4 -8 7 -13 8 -13 1 0 -9 55 -37 75 -37 19 0 62 -40 57 -53 -2 -7 5
-12 17 -12 11 0 27 -10 36 -22 8 -13 18 -22 20 -20 15 7 26 0 21 -15 -3 -10
-1 -25 4 -33 8 -13 11 -13 22 -1 8 9 9 11 1 7 -13 -7 -28 10 -15 18 5 3 27
-12 49 -34 23 -21 44 -36 47 -33 3 4 6 -1 6 -10 0 -8 -5 -17 -12 -19 -7 -3 -5
-7 6 -11 9 -4 15 -3 12 2 -3 5 1 12 10 15 8 3 12 2 9 -4 -3 -6 -1 -10 6 -10 7
0 4 -7 -7 -16 -17 -14 -16 -14 9 0 22 13 27 14 27 3 0 -8 -10 -19 -23 -26 -17
-9 -17 -10 -2 -5 43 14 66 13 63 -3 -2 -9 3 -17 10 -19 7 -1 8 0 2 3 -5 2 -7
9 -4 15 9 14 43 -42 37 -61 -4 -13 -3 -13 5 -2 6 8 8 21 5 30 -3 12 -2 12 7
-2 6 -9 17 -15 23 -11 7 3 4 -1 -6 -9 -9 -8 -17 -18 -17 -22 0 -4 6 -3 13 3 7
6 22 9 32 7 11 -2 23 -4 28 -4 4 -1 7 -10 7 -22 0 -11 -5 -17 -10 -14 -6 4 -8
11 -5 16 4 5 1 9 -4 9 -14 0 -14 -17 -1 -25 8 -5 8 -11 1 -19 -8 -9 -7 -13 4
-13 8 0 12 4 9 9 -3 4 2 11 10 14 9 3 13 10 10 15 -3 5 2 6 10 3 9 -3 16 -10
16 -15 0 -5 3 -8 8 -7 10 2 72 -35 72 -45 0 -4 -11 0 -24 8 -22 15 -24 14 -40
-12 -17 -27 -17 -28 1 -7 21 24 45 21 36 -4 -4 -13 -3 -14 5 -3 7 9 12 10 16
2 4 -6 12 -9 17 -5 19 11 67 -7 99 -39 19 -18 30 -26 25 -18 -5 9 2 8 24 -5
17 -10 31 -22 31 -26 0 -4 8 -5 18 -1 14 5 15 3 5 -8 -20 -20 -15 -33 4 -13
11 11 18 13 21 5 2 -6 13 -11 25 -12 l22 0 -22 -11 c-13 -6 -23 -18 -22 -27 0
-10 2 -12 6 -3 2 6 10 9 15 6 7 -4 8 -2 4 4 -5 8 1 12 18 12 14 0 28 -5 31
-10 4 -6 11 -7 17 -4 6 4 6 -2 -1 -15 -7 -11 -10 -22 -9 -22 10 -5 58 -10 87
-9 24 1 32 -3 28 -13 -6 -16 0 -26 28 -47 15 -11 14 -7 -4 13 -24 27 -24 27
-3 27 11 0 24 -5 27 -10 4 -6 11 -7 17 -4 7 4 8 2 4 -5 -6 -9 -12 -9 -24 1
-10 7 -7 1 6 -13 12 -14 19 -29 15 -32 -6 -6 12 -10 21 -4 2 1 14 -7 27 -18
l24 -20 -19 23 c-11 12 -21 20 -24 17 -3 -2 -11 3 -18 13 -19 26 4 33 42 11
19 -10 34 -16 34 -13 0 3 16 -4 35 -16 19 -12 35 -19 35 -16 0 4 10 0 23 -9
13 -8 27 -12 30 -8 4 3 7 1 7 -5 0 -7 9 -12 20 -12 27 0 25 -16 -2 -23 -12 -4
-19 -9 -15 -13 3 -4 17 0 30 9 16 10 28 12 40 5 10 -5 23 -6 30 -2 9 6 8 3 -1
-8 -11 -14 -10 -16 7 -11 13 3 21 1 21 -6 0 -7 -4 -9 -10 -6 -6 3 -7 -1 -4 -9
7 -19 24 -11 24 11 0 9 3 13 7 9 10 -10 14 -48 5 -42 -5 3 -9 -1 -9 -9 0 -8 4
-15 8 -15 10 0 20 30 13 41 -6 11 29 12 40 2 4 -5 13 -8 18 -8 6 0 13 -6 16
-12 2 -7 -3 -13 -12 -13 -8 0 -17 -4 -21 -9 -3 -6 4 -9 15 -8 11 1 23 9 26 19
4 14 8 15 19 5 7 -6 11 -15 8 -19 -2 -4 3 -5 11 -2 9 3 13 11 10 16 -4 6 4 4
17 -3 13 -7 27 -13 31 -14 18 -1 19 -17 2 -31 -18 -15 -18 -15 3 -5 16 8 23 8
27 -2 3 -6 3 -1 0 13 -3 14 -2 20 3 14 4 -6 24 -15 43 -20 50 -11 50 -11 55
-14 3 -1 10 -4 15 -5 6 -1 12 -4 15 -5 3 -1 11 -3 18 -4 13 -2 14 -17 3 -51
-5 -15 -4 -15 5 2 14 28 25 29 38 6 9 -16 10 -16 11 -2 0 9 -7 20 -16 23 -9 4
-15 9 -12 11 3 3 17 -1 33 -9 15 -8 36 -13 46 -11 11 2 17 0 14 -5 -3 -4 -17
-7 -32 -5 -25 3 -26 2 -8 -11 13 -9 22 -11 29 -4 17 17 66 12 66 -6 0 -13 -3
-14 -14 -5 -12 10 -21 9 -43 -3 -21 -12 -23 -16 -8 -14 11 2 23 7 26 12 9 11
31 -3 24 -15 -4 -5 -1 -9 4 -9 6 0 11 4 11 9 0 5 8 8 18 6 9 -2 25 -4 35 -4
11 -1 15 -6 11 -13 -5 -7 -3 -8 5 -3 18 10 -1 27 -33 28 -14 1 -26 6 -26 11 0
4 12 5 28 1 15 -4 32 -8 39 -8 7 0 10 -4 7 -9 -3 -5 6 -7 21 -4 26 5 26 5 11
-20 -21 -30 -11 -31 15 -1 20 22 20 22 14 1 -4 -15 0 -24 10 -28 9 -3 13 -11
9 -17 -4 -8 -3 -9 5 -5 9 6 9 11 0 22 -15 18 -5 18 33 -2 19 -10 27 -11 23 -4
-5 8 -3 11 6 8 8 -3 13 -11 11 -17 -1 -7 2 -10 8 -6 8 5 7 11 -1 21 -6 8 -9
17 -5 21 3 3 6 1 6 -6 0 -9 8 -11 21 -8 23 6 49 -1 49 -12 0 -4 -7 -8 -15 -8
-8 0 -12 4 -9 9 3 4 0 8 -5 8 -10 0 -13 -7 -10 -27 1 -5 5 -7 10 -6 5 2 9 -2
9 -9 0 -6 6 -4 13 5 6 10 26 18 42 20 26 2 30 -1 28 -21 -2 -13 1 -21 7 -17 6
3 10 14 10 23 0 15 2 15 10 2 9 -13 10 -13 10 0 0 10 3 11 8 4 4 -6 21 -10 37
-9 36 3 55 -3 55 -17 0 -6 -7 -5 -15 2 -20 17 -38 1 -24 -20 9 -12 10 -12 5 3
-4 12 -2 17 6 15 7 -3 13 -10 13 -15 0 -6 4 -15 9 -20 5 -4 6 -3 2 4 -8 15 24
33 50 28 10 -2 23 -4 27 -4 5 -1 6 -5 3 -10 -3 -5 3 -20 14 -33 11 -14 16 -29
12 -33 -4 -5 -1 -5 6 -1 9 6 8 14 -8 35 -10 16 -17 31 -13 35 4 3 15 -6 25
-21 10 -16 18 -23 18 -16 0 6 -4 15 -10 18 -5 3 -10 12 -10 18 0 9 2 9 8 1 4
-6 24 -10 44 -9 21 2 36 -1 33 -5 -2 -4 -16 -6 -30 -5 -14 2 -25 -1 -25 -6 0
-5 5 -9 11 -9 5 0 8 -4 5 -8 -3 -5 1 -9 9 -9 12 0 12 3 2 16 -10 12 -9 14 6 8
10 -4 20 -7 23 -7 2 0 1 -8 -2 -17 -5 -15 -4 -15 4 -3 6 8 9 17 6 21 -2 4 0
10 6 14 5 3 10 2 10 -3 0 -15 28 -23 36 -10 4 6 3 8 -4 4 -6 -3 -13 -2 -16 3
-4 5 2 8 11 6 10 -2 18 -4 18 -5 0 -4 53 -11 92 -12 33 -2 40 -5 31 -15 -8
-10 -14 -10 -23 -3 -14 11 -33 -5 -21 -17 3 -4 6 0 6 8 0 12 2 12 9 0 7 -11
13 -10 35 4 14 10 26 13 26 7 0 -6 -8 -16 -17 -21 -16 -9 -17 -10 -1 -11 9 0
20 10 23 21 6 17 9 19 16 8 6 -10 9 -11 9 -1 0 6 5 12 11 12 5 0 8 -4 4 -10
-3 -5 7 -8 25 -5 16 2 30 0 31 -3 2 -23 8 -45 14 -50 3 -4 3 9 0 28 -3 22 -2
30 4 21 7 -11 9 -11 14 0 4 10 6 10 6 2 1 -7 6 -13 12 -13 5 0 7 6 3 13 -6 8
-3 8 9 -1 9 -8 21 -11 27 -7 5 3 10 2 10 -3 0 -16 -13 -22 -27 -11 -10 9 -13
8 -13 -1 0 -10 -3 -10 -15 0 -10 9 -15 9 -15 1 0 -6 3 -11 8 -12 4 0 17 -2 30
-3 13 -2 25 1 28 6 3 4 10 8 16 8 7 0 6 -6 -2 -15 -7 -9 -8 -15 -2 -15 5 0 13
8 17 18 6 15 8 15 18 1 7 -9 23 -21 37 -28 l25 -12 -22 18 c-12 10 -19 23 -15
28 10 14 42 18 42 5 0 -6 -4 -9 -9 -5 -5 3 -13 0 -17 -7 -4 -7 -4 -10 1 -6 4
4 16 -3 27 -15 11 -12 17 -17 14 -11 -3 7 1 14 9 18 9 3 12 12 9 23 -5 17 -5
17 6 0 9 -14 9 -22 -2 -35 -12 -15 -11 -16 5 -3 11 9 15 21 12 35 -4 12 -3 16
2 11 9 -12 23 -13 40 -2 6 4 14 3 17 -2 3 -4 24 -8 46 -7 23 1 43 -1 46 -5 2
-4 13 -5 24 -2 12 3 20 0 20 -6 0 -7 -4 -10 -9 -6 -15 9 -25 -15 -12 -28 9 -9
11 -8 5 6 -3 10 -3 17 2 16 22 -4 35 2 28 13 -5 8 -2 9 9 5 9 -3 19 -2 23 4 4
7 10 6 18 0 7 -6 16 -8 19 -4 4 3 7 1 7 -6 0 -7 5 -9 12 -5 15 9 89 13 102 6
15 -8 57 -9 62 -1 2 4 18 4 34 -1 21 -6 30 -5 30 3 0 8 3 8 8 2 4 -5 21 -10
37 -10 19 0 29 -5 27 -13 -1 -6 2 -12 7 -12 5 0 11 10 13 23 3 19 4 19 10 5 4
-10 1 -23 -7 -32 -12 -12 -10 -13 15 -12 15 0 26 4 23 9 -2 4 -8 5 -13 2 -5
-3 -8 3 -7 14 1 15 4 17 14 9 10 -8 19 -6 35 8 16 14 22 16 25 6 4 -9 8 -10
18 -2 16 13 36 10 53 -10 12 -13 13 -13 9 1 -3 9 1 16 9 16 9 0 12 -7 9 -17
-4 -11 3 -20 22 -29 l28 -12 -25 21 c-20 15 -21 20 -8 20 9 0 24 -10 32 -22 9
-12 16 -18 16 -12 0 5 -5 15 -12 22 -9 9 -9 12 0 12 7 0 15 -7 19 -16 5 -13 8
-13 15 -2 7 10 11 10 15 1 3 -10 9 -9 21 3 11 11 17 13 20 5 2 -6 8 -11 13
-11 6 0 7 5 4 10 -3 6 -2 10 4 10 6 0 8 6 5 13 -3 8 3 13 15 13 15 0 17 -3 9
-13 -14 -17 -3 -17 25 0 12 8 33 13 47 12 14 0 28 4 32 10 5 6 8 5 8 -3 0 -8
5 -10 13 -5 32 20 50 7 22 -17 -8 -7 -15 -8 -15 -3 0 5 -7 10 -15 10 -8 0 -12
-4 -9 -9 7 -11 -3 -10 -28 3 -11 6 -18 7 -14 1 3 -5 -2 -9 -12 -8 -17 1 -22
-5 -22 -26 0 -9 3 -9 9 1 5 8 19 16 31 18 18 3 21 -1 17 -16 -3 -14 -1 -18 9
-14 7 3 12 10 11 16 -1 7 5 12 13 12 8 0 21 5 29 9 11 7 13 5 8 -7 -4 -10 -2
-16 6 -14 7 1 11 -4 9 -11 -1 -8 2 -11 9 -7 8 5 8 10 0 18 -13 13 -15 30 -2
22 5 -3 12 -1 16 5 3 5 15 10 26 10 14 0 18 -4 13 -12 -5 -9 -2 -9 9 1 12 10
21 10 30 3 9 -8 16 -6 24 7 9 14 8 18 -3 18 -7 0 -11 -4 -8 -9 3 -4 1 -8 -5
-8 -5 0 -13 5 -16 10 -6 10 -3 11 33 14 9 1 23 5 30 9 6 5 12 7 13 5 7 -29 4
-43 -12 -59 -10 -10 -15 -19 -10 -19 14 0 41 41 35 52 -3 4 0 8 6 8 6 0 9 3 7
8 -3 4 7 8 21 8 15 1 36 5 47 9 17 8 18 7 5 -7 -8 -9 -18 -14 -22 -12 -4 2 -9
0 -13 -5 -3 -6 -11 -9 -18 -7 -7 1 -8 1 -4 -2 4 -2 0 -10 -10 -18 -16 -13 -15
-13 10 -3 15 7 27 16 27 20 0 9 20 6 40 -6 12 -7 13 -6 3 6 -15 19 10 36 50
35 15 -1 27 2 27 5 0 4 15 6 32 5 24 -2 33 -7 33 -21 0 -10 8 -19 18 -21 9 -1
15 2 11 7 -3 5 -9 7 -14 4 -4 -3 -7 5 -6 18 1 18 7 23 31 22 16 0 34 2 40 4
23 11 52 8 52 -5 0 -17 -2 -17 -30 -3 -21 10 -21 10 -3 -5 11 -9 17 -17 13
-17 -25 -5 -33 -3 -45 11 -12 13 -12 13 -6 0 7 -13 5 -13 -8 -2 -10 8 -19 9
-22 3 -8 -12 12 -25 39 -26 11 0 26 -4 34 -9 9 -6 12 -5 7 2 -8 13 9 24 37 26
21 1 38 26 17 26 -6 0 -8 -4 -5 -10 3 -5 2 -10 -4 -10 -5 0 -13 5 -16 10 -6
10 8 19 42 25 10 2 18 4 18 5 0 1 12 3 26 4 14 2 32 6 40 11 8 4 11 5 7 0 -4
-4 -2 -15 5 -23 10 -13 8 -14 -16 -8 -20 5 -27 3 -22 -4 5 -8 73 -8 91 -1 9 4
10 32 2 37 -7 5 -8 2 -3 -6 5 -9 4 -11 -4 -6 -7 4 -10 2 -9 -5 2 -6 -3 -14
-11 -17 -9 -3 -11 0 -6 8 5 9 4 11 -3 6 -7 -4 -12 -1 -12 8 0 9 6 13 14 10 8
-3 17 0 21 5 3 6 11 9 16 5 5 -3 17 0 26 8 14 11 14 9 -1 -20 -10 -19 -16 -36
-14 -38 2 -2 12 12 22 31 15 28 24 34 43 31 12 -3 23 0 23 5 0 5 6 4 14 -3 9
-9 11 -17 5 -25 -14 -16 7 -26 28 -13 15 9 14 10 -7 4 -24 -6 -24 -5 -8 12 14
14 20 15 32 5 12 -10 18 -9 32 8 13 15 21 17 30 10 15 -12 34 -4 33 14 0 9 -2
9 -6 0 -3 -10 -10 -10 -26 -1 -12 6 -23 9 -24 7 -1 -2 -5 1 -10 6 -4 6 -4 7 1
3 5 -4 18 -3 29 3 14 8 18 8 13 0 -9 -14 7 -14 21 0 8 8 13 7 18 -2 6 -8 4
-10 -5 -4 -9 5 -11 4 -6 -4 11 -17 26 -3 19 16 -5 12 -2 15 10 10 9 -3 19 -2
22 4 8 13 58 6 63 -9 2 -7 -1 -12 -8 -12 -6 0 -9 4 -6 8 2 4 -6 8 -19 8 -13 0
-22 -3 -19 -7 2 -5 -5 -6 -16 -4 -12 2 -18 0 -14 -6 3 -5 0 -16 -6 -24 -9 -11
-9 -15 -1 -15 6 0 11 5 11 11 0 5 4 7 10 4 5 -3 7 0 4 9 -4 10 0 13 13 11 10
-2 18 -4 18 -5 0 -1 8 -3 17 -5 10 -2 20 5 23 15 3 10 11 17 18 16 29 -7 46
-19 40 -30 -3 -6 -2 -8 2 -3 14 12 16 45 3 53 -8 5 -9 2 -5 -10 5 -12 3 -16
-5 -13 -7 2 -12 10 -10 16 1 8 -2 9 -10 5 -19 -12 -38 -14 -38 -3 0 5 9 10 20
10 28 2 33 3 48 12 6 5 12 5 12 0 0 -4 9 -19 20 -33 15 -18 18 -20 13 -6 -4
12 -3 17 4 13 6 -4 16 0 22 7 9 11 9 16 0 22 -7 4 -9 3 -6 -2 3 -6 -5 -10 -17
-10 -12 0 -23 5 -23 12 0 7 6 10 14 7 7 -3 21 1 30 8 9 8 14 9 10 3 -4 -7 0
-14 7 -17 11 -4 14 0 11 16 -4 20 -3 21 9 5 18 -24 26 -23 21 4 -3 16 -2 19 7
10 8 -8 17 -7 34 5 13 8 24 11 24 7 0 -5 5 -2 10 6 8 12 10 12 10 1 0 -10 3
-11 13 -2 8 6 22 12 33 14 10 2 30 9 42 16 13 7 26 10 29 7 4 -3 12 -1 20 6
10 8 17 8 26 -1 9 -10 8 -11 -8 -6 -15 5 -16 4 -6 -3 9 -7 10 -12 2 -16 -6 -4
-11 -2 -11 5 0 7 -3 10 -6 6 -3 -3 -3 -11 1 -17 5 -8 12 -7 24 4 10 9 21 13
26 9 4 -5 2 3 -5 16 -6 13 -7 21 -2 17 6 -3 12 -3 15 1 2 5 3 4 2 -2 -2 -5 8
-11 21 -11 13 -1 24 2 24 8 0 5 -4 7 -9 3 -5 -3 -13 0 -17 6 -4 8 -3 9 5 5 6
-4 14 0 17 8 6 15 36 17 50 3 4 -3 -3 -4 -15 -2 -14 2 -19 0 -15 -7 5 -7 2 -8
-7 -3 -12 8 -12 6 0 -8 7 -9 19 -17 25 -17 6 0 5 4 -3 9 -8 5 -9 11 -3 15 6 4
15 -2 21 -11 9 -15 10 -12 7 13 -3 26 0 31 16 26 13 -3 15 -8 9 -16 -6 -8 -6
-17 1 -26 8 -13 9 -12 5 2 -3 9 0 22 8 28 8 6 11 18 8 27 -5 12 -1 14 17 8 15
-5 20 -4 16 4 -5 7 -1 8 10 4 13 -5 15 -3 9 8 -4 8 -5 11 0 7 4 -4 14 -3 20 2
20 16 43 1 40 -25 -1 -14 2 -22 7 -19 5 3 7 12 4 20 -3 8 -1 14 4 14 6 0 10
-4 10 -10 0 -5 5 -10 11 -10 8 0 8 4 0 14 -7 9 -8 17 -2 20 5 3 11 1 13 -5 3
-8 13 -6 33 7 16 10 32 17 34 14 3 -3 7 4 8 15 1 16 1 16 -3 2 -3 -9 -10 -15
-15 -11 -5 3 -7 11 -3 17 3 7 -6 -1 -19 -17 -16 -19 -27 -24 -32 -17 -5 9 -10
9 -21 0 -12 -10 -17 -9 -27 1 -9 9 -9 11 0 6 6 -3 15 -2 18 4 4 6 16 8 27 4
15 -5 19 -3 13 7 -5 8 -5 11 0 7 4 -4 14 0 22 8 8 8 19 12 24 9 5 -4 9 -1 9 5
0 7 5 6 14 -2 8 -7 13 -17 13 -22 -1 -5 5 -11 13 -13 13 -4 13 -3 0 6 -8 6
-11 11 -6 11 5 0 3 7 -4 15 -10 13 -9 15 12 15 13 0 29 -5 36 -12 6 -6 14 -9
18 -6 3 4 -7 13 -23 22 -15 8 -22 16 -15 17 6 1 16 2 21 3 5 0 12 4 16 8 4 4
14 4 23 1 9 -4 13 -2 9 4 -4 6 1 10 11 9 9 0 16 4 15 10 -1 6 5 11 13 12 8 1
21 3 29 4 8 1 15 5 15 10 0 5 5 6 10 3 6 -3 10 -1 10 6 0 7 3 9 7 6 3 -4 -6
-18 -20 -31 -15 -14 -27 -31 -27 -38 0 -7 6 -4 12 7 16 30 18 31 29 15 9 -13
10 -13 6 1 -3 9 4 21 15 28 17 11 18 15 7 22 -9 6 -10 9 -2 9 6 0 15 -5 18
-10 4 -6 11 -7 17 -4 7 4 8 2 4 -4 -4 -7 -2 -12 3 -12 6 0 11 6 11 13 0 9 2 9
9 -1 4 -8 11 -13 15 -13 18 3 26 0 26 -8 0 -11 -19 -9 -39 3 -9 6 -12 5 -8 -1
3 -5 0 -10 -8 -10 -8 0 -15 4 -15 9 0 16 -39 -16 -44 -37 -4 -19 -3 -18 11 3
8 12 20 22 25 22 6 0 4 -8 -3 -18 -11 -14 -10 -14 8 2 21 17 23 17 29 2 6 -15
8 -15 21 1 13 17 14 16 8 -7 -6 -25 -6 -25 10 2 14 24 18 26 43 17 15 -6 34
-16 42 -24 8 -7 22 -15 30 -17 18 -4 42 -46 34 -62 -3 -6 3 0 14 13 15 18 21
21 27 10 5 -7 4 -14 -3 -17 -7 -2 -12 -9 -12 -15 0 -8 4 -7 12 1 17 17 41 15
64 -7 11 -10 30 -22 42 -25 28 -9 28 -33 1 -41 -11 -4 -18 -9 -16 -11 9 -9 56
19 50 29 -3 6 -1 7 6 3 9 -6 9 -11 -1 -24 -11 -13 -10 -14 9 -4 17 9 22 9 27
-4 3 -8 1 -25 -5 -36 -8 -15 -8 -23 2 -32 9 -8 10 -8 5 1 -4 7 0 25 8 40 8 16
15 22 16 15 0 -8 5 -10 13 -6 6 4 9 4 5 -1 -4 -4 -3 -16 2 -26 8 -13 6 -20 -7
-28 -10 -6 -13 -11 -6 -11 6 0 15 5 18 10 10 16 25 1 18 -17 -6 -15 -5 -16 9
-3 15 14 15 16 -5 32 -12 9 -18 20 -14 24 4 4 7 2 7 -5 0 -7 4 -10 9 -7 5 3
12 -1 15 -10 4 -9 9 -14 12 -11 12 11 53 -40 49 -61 -2 -12 1 -22 7 -22 5 0 8
7 5 15 -4 8 -2 17 3 20 6 4 10 1 10 -5 0 -6 5 -8 10 -5 6 3 10 -1 10 -10 0 -9
-3 -14 -7 -12 -5 3 -9 -7 -10 -21 l-1 -27 14 28 c8 15 20 27 27 27 9 0 9 -2 0
-8 -8 -5 -3 -12 16 -20 19 -8 31 -22 35 -42 4 -23 11 -30 28 -29 l23 0 -22 9
c-23 10 -32 30 -12 30 5 0 7 -4 4 -10 -3 -5 0 -10 8 -10 7 0 24 -11 37 -25 23
-25 23 -25 4 -47 -19 -23 -19 -23 2 -5 11 9 24 14 29 10 4 -5 5 -2 0 6 -6 10
-4 12 4 7 7 -5 10 -15 7 -23 -3 -8 -2 -11 4 -8 13 8 62 -36 56 -51 -3 -7 4
-20 14 -29 11 -10 18 -21 15 -25 -2 -4 2 -7 9 -7 7 0 13 6 13 13 0 7 -5 10
-10 7 -6 -4 -7 -1 -2 7 6 9 4 11 -5 5 -9 -5 -11 -4 -6 4 6 9 11 9 22 0 17 -14
19 -49 2 -49 -6 0 -8 -3 -5 -6 4 -4 12 -2 19 4 16 13 77 -37 70 -58 -3 -8 0
-10 7 -6 7 5 10 2 9 -6 -2 -8 5 -12 17 -10 l20 4 -20 -17 c-11 -9 -14 -13 -7
-10 15 8 54 -23 46 -36 -3 -5 2 -9 11 -9 9 0 13 -5 10 -10 -4 -6 -11 -7 -17
-4 -7 4 -8 2 -4 -4 4 -6 13 -9 21 -6 8 4 23 -9 39 -34 14 -22 31 -42 38 -45 8
-3 4 -8 -11 -14 -24 -10 -24 -10 -3 -15 12 -4 20 -2 16 3 -3 5 0 9 5 9 6 0 11
-11 11 -25 0 -14 5 -25 11 -25 5 0 7 5 3 12 -5 7 -3 8 5 4 7 -5 10 -10 7 -14
-3 -3 2 -11 12 -19 11 -10 12 -12 2 -8 -8 4 -4 -3 10 -15 14 -12 18 -18 10
-14 -8 4 -5 -2 6 -14 19 -18 82 -138 98 -184 12 -38 22 -15 22 47 -1 36 3 65
7 65 5 0 5 5 1 12 -5 8 -2 9 9 5 10 -3 17 -2 17 3 0 6 -8 10 -17 10 -14 0 -18
8 -18 34 0 30 2 33 15 22 8 -7 22 -16 30 -20 8 -4 4 1 -10 12 -14 12 -21 24
-17 29 5 4 13 1 18 -7 9 -13 10 -13 6 0 -2 8 -12 15 -23 15 -10 0 -17 5 -14
10 3 6 9 9 14 7 5 -2 3 4 -4 13 -7 8 -10 18 -7 22 4 3 2 12 -4 19 -8 10 -5 11
13 8 22 -5 22 -5 3 8 -20 13 -35 86 -16 73 6 -3 8 -13 6 -23 -2 -12 4 -17 23
-19 27 -1 27 -1 4 11 -12 7 -20 15 -16 19 4 4 13 2 20 -4 8 -7 14 -6 20 2 5 8
3 9 -5 5 -8 -5 -14 0 -18 13 -3 12 -9 21 -14 21 -5 0 -5 -8 -2 -18 6 -15 5
-15 -8 -2 -16 17 -24 94 -8 85 5 -4 9 -3 10 2 0 4 2 16 4 26 2 9 -1 17 -7 17
-6 0 -8 -7 -4 -15 3 -8 1 -15 -4 -15 -6 0 -10 9 -10 20 0 11 4 20 10 20 5 0 7
7 4 15 -5 11 -1 14 12 9 14 -4 15 -3 6 4 -8 5 -13 12 -13 16 3 19 0 26 -10 26
-8 0 -8 -4 -1 -13 7 -8 6 -17 -3 -30 -11 -15 -12 -12 -10 25 1 24 -2 48 -7 55
-5 7 -5 14 2 18 6 3 7 12 3 18 -11 18 -12 97 -1 97 5 0 6 -6 2 -12 -6 -9 -3
-9 9 0 15 13 15 16 1 37 -14 21 -14 24 3 34 17 9 17 10 -2 8 -15 -1 -21 -8
-21 -24 0 -13 4 -23 10 -23 5 0 6 -3 3 -6 -10 -11 -38 17 -30 30 13 20 13 46
1 46 -6 0 -9 3 -6 6 4 3 2 19 -2 35 -5 18 -5 27 1 24 12 -8 11 2 -3 28 -15 27
-19 67 -8 67 4 0 7 -12 5 -27 -2 -25 -2 -26 11 -8 9 12 10 22 4 30 -7 9 -6 16
5 25 17 14 20 46 6 54 -5 4 -7 -3 -4 -14 6 -24 -13 -50 -35 -50 -13 0 -11 4 5
15 22 15 22 45 1 45 -7 0 -6 -5 1 -14 9 -10 8 -15 -3 -19 -10 -4 -13 -1 -10 7
3 8 1 17 -4 20 -5 3 -8 19 -6 35 5 46 8 55 19 63 6 5 5 8 -3 8 -7 0 -10 5 -6
12 4 6 3 8 -4 4 -6 -3 -9 -15 -7 -25 2 -10 -1 -24 -6 -32 -6 -10 -8 -7 -5 11
2 14 -2 31 -8 39 -8 11 -8 13 2 7 12 -7 14 -2 16 39 1 11 7 19 14 17 8 -1 11
2 7 8 -4 6 -13 5 -25 -2 -13 -8 -16 -16 -10 -22 13 -13 13 -26 -2 -26 -6 0 -8
3 -5 7 4 3 2 12 -3 18 -12 14 -2 48 11 39 5 -3 9 -1 9 4 0 6 -7 13 -16 16 -8
3 -12 2 -9 -3 3 -5 0 -13 -6 -16 -6 -5 -10 0 -9 11 4 32 0 45 -9 40 -5 -4 -8
2 -6 11 1 10 -2 24 -8 31 -6 8 -5 17 3 27 11 13 10 14 -5 9 -16 -7 -16 -5 -1
25 10 18 21 29 28 25 7 -5 8 -3 4 5 -5 7 -10 10 -13 7 -3 -3 -15 -1 -27 5 -18
9 -19 8 -5 -3 16 -13 15 -38 -2 -38 -4 0 -5 7 -2 17 5 12 3 14 -8 8 -8 -4 -11
-5 -7 0 4 4 -1 24 -12 45 -11 21 -16 40 -13 44 4 3 1 6 -5 6 -7 0 -11 3 -10 8
2 10 -13 44 -27 62 -25 31 -26 50 -2 60 22 10 22 10 -3 8 -28 -3 -53 9 -45 21
2 5 -6 20 -19 34 -18 19 -21 28 -12 38 8 9 7 10 -7 6 -10 -4 -16 -3 -12 2 3 6
-2 14 -12 19 -10 6 -17 24 -19 48 -1 35 -1 36 11 15 10 -20 13 -21 18 -7 4 9
2 16 -3 16 -5 0 -8 9 -7 19 1 15 4 17 14 9 7 -6 14 -8 14 -4 1 3 2 9 3 14 2
11 56 68 56 59 0 -4 6 -2 14 5 8 7 11 17 8 22 -3 5 0 6 6 2 22 -14 -2 -42 -32
-37 -5 1 -6 -5 -2 -14 3 -10 2 -13 -4 -10 -6 4 -9 1 -8 -7 2 -8 -5 -12 -17
-10 -19 2 -19 2 -3 -11 10 -8 16 -17 13 -20 -3 -4 -2 -5 2 -2 3 3 13 -1 22 -8
13 -10 14 -10 5 3 -11 16 -11 26 0 52 5 10 12 15 17 12 5 -3 9 0 9 6 0 6 4 8
10 5 6 -4 7 1 3 11 -5 12 -3 15 6 9 10 -6 11 -3 1 15 -10 18 -9 21 1 15 9 -6
11 -3 6 9 -4 9 -3 15 2 11 6 -3 15 3 20 12 10 17 12 17 26 -1 8 -11 15 -15 15
-10 0 5 9 10 20 11 13 1 18 -2 14 -9 -5 -7 -2 -8 6 -3 10 6 9 11 -5 21 -13 9
-22 10 -31 4 -8 -8 -13 -6 -18 5 -4 11 -2 14 6 9 8 -5 9 -2 4 11 -5 15 -4 16
9 5 12 -10 15 -10 15 2 0 19 35 60 43 51 4 -3 -1 -11 -10 -18 -9 -7 -18 -23
-20 -36 -2 -21 -1 -22 10 -8 6 9 17 18 22 20 6 2 10 22 10 44 0 29 4 40 15 40
8 1 14 7 12 14 -1 7 2 10 7 6 6 -3 15 3 21 14 6 12 16 18 25 14 12 -4 13 -8 4
-20 -10 -11 -9 -17 4 -29 9 -8 13 -9 7 -3 -5 8 -6 19 0 29 7 13 5 22 -6 30
-13 12 -11 17 12 42 15 15 35 28 43 28 12 -1 10 -4 -5 -13 -12 -7 -20 -20 -19
-29 2 -10 -1 -18 -6 -18 -5 0 -9 5 -9 11 0 5 -5 7 -11 4 -6 -5 -4 -12 8 -20
18 -13 38 -1 27 17 -3 4 0 8 6 8 6 0 8 4 5 10 -3 6 -2 10 4 10 5 0 13 -9 16
-21 4 -11 9 -18 12 -16 2 3 0 15 -7 26 -13 25 -3 27 21 5 11 -10 19 -12 24 -4
3 6 3 9 -2 8 -4 -1 -22 7 -40 18 -31 19 -31 21 -13 34 10 7 16 18 13 24 -3 6
-3 8 2 4 8 -8 45 33 45 50 0 19 35 41 50 32 13 -8 13 -10 1 -10 -8 0 -12 -3
-8 -6 3 -3 14 -1 24 5 12 7 14 10 4 11 -17 0 -5 15 12 15 6 0 13 12 14 28 1
15 -2 27 -7 27 -5 0 -7 -12 -4 -27 3 -19 1 -23 -4 -15 -7 11 -10 10 -16 -3 -3
-9 -11 -13 -17 -9 -8 5 -6 11 7 21 10 8 19 18 19 24 0 5 6 13 13 18 7 4 15 17
16 27 2 10 9 18 16 16 7 -2 10 3 7 11 -3 8 1 14 9 14 12 0 12 -4 -1 -21 -20
-29 -39 -63 -30 -54 5 4 14 3 21 -3 8 -7 14 -7 19 1 4 6 1 9 -6 8 -6 -2 -14 3
-16 10 -3 7 1 11 8 10 7 -2 14 3 15 10 1 6 2 17 3 23 0 5 5 7 11 4 5 -3 7 0 4
9 -3 8 0 16 8 19 7 2 2 2 -11 0 -21 -4 -22 -3 -7 12 12 12 20 13 35 5 14 -7
22 -7 27 2 4 7 3 8 -4 4 -17 -10 -15 10 3 28 19 18 19 23 1 23 -8 0 -15 -3
-14 -6 2 -21 -4 -31 -14 -25 -7 4 -8 3 -4 -4 5 -8 1 -10 -10 -5 -15 5 -15 7 0
15 9 5 14 13 11 19 -6 8 8 13 28 10 12 -2 8 17 -5 22 -10 4 -10 6 0 6 6 1 12
8 12 16 0 8 11 25 24 38 19 19 22 27 13 36 -9 10 -9 12 3 9 10 -2 15 4 14 19
-1 13 3 20 7 17 5 -3 12 8 15 25 4 16 15 38 25 47 10 9 16 21 13 26 -3 5 1 17
9 26 9 9 16 20 16 25 1 4 4 6 8 5 12 -4 14 -36 3 -43 -6 -3 -10 -1 -10 5 0 6
-5 8 -10 5 -16 -10 -12 -21 9 -22 21 -2 35 22 24 40 -4 7 0 8 13 4 18 -7 18
-6 2 7 -10 7 -18 19 -18 25 0 7 -6 9 -12 6 -7 -4 -5 0 5 8 20 16 23 32 5 21
-7 -4 -4 2 6 14 11 12 24 22 30 22 6 0 4 -5 -4 -10 -14 -9 -13 -10 18 -10 4 0
7 3 7 8 0 4 4 14 10 22 8 13 7 13 -8 1 -12 -9 -17 -10 -17 -2 0 7 -4 9 -10 6
-5 -3 -10 -1 -10 4 0 6 5 11 11 11 6 0 8 7 5 16 -4 10 -2 13 6 8 8 -5 9 -2 5
10 -4 10 -3 15 3 11 6 -3 10 -2 10 4 0 5 -6 12 -12 14 -10 4 -10 6 -1 6 7 1
11 7 9 14 -1 6 -1 9 1 4 3 -4 8 -5 12 -3 11 7 10 -27 -2 -41 -6 -9 -6 -13 2
-13 6 0 11 5 11 11 0 5 4 8 8 5 5 -3 9 1 9 9 0 8 -5 15 -10 15 -6 0 -7 3 -4 7
4 3 0 15 -10 25 -9 10 -11 18 -5 18 5 0 9 11 8 25 -2 13 1 22 5 19 9 -5 11 3
12 42 0 11 6 21 13 21 10 0 10 -6 3 -21 -10 -20 -10 -21 5 -2 9 11 16 14 16 7
0 -7 5 -9 11 -5 7 4 1 13 -15 23 -14 10 -23 20 -20 24 4 4 19 -3 35 -13 17
-13 30 -17 34 -10 4 6 1 9 -7 8 -8 -2 -13 6 -12 19 1 13 -3 20 -7 17 -5 -3 -9
2 -9 10 0 8 7 19 16 24 15 8 15 10 0 15 -10 4 -14 3 -11 -2 3 -6 -2 -14 -11
-19 -22 -12 -22 -19 1 -36 11 -9 16 -15 10 -15 -5 0 -19 6 -29 14 -11 8 -15
15 -8 15 6 0 9 9 7 20 -3 13 0 18 7 14 8 -5 9 0 5 16 -3 13 -1 32 5 44 6 11
11 33 10 48 0 16 3 26 8 23 7 -4 22 18 24 37 1 4 10 14 21 23 19 14 18 15 -8
4 -15 -7 -26 -18 -25 -25 2 -7 -1 -12 -7 -11 -5 1 -8 7 -6 12 4 11 11 68 14
105 1 14 6 28 12 33 7 4 7 10 0 15 -16 11 -17 34 -3 44 10 6 10 10 -2 19 -13
10 -13 10 0 6 9 -3 24 1 34 9 11 7 24 11 30 7 6 -3 7 -2 3 3 -5 5 -12 9 -16 9
-3 0 -19 10 -35 23 -22 17 -25 22 -11 22 10 0 23 -7 29 -16 10 -13 12 -13 12
5 0 11 -3 18 -7 15 -10 -6 -19 24 -13 41 4 8 2 15 -4 15 -6 0 -9 -12 -7 -27 2
-25 2 -26 -11 -8 -9 11 -10 22 -4 30 5 6 5 17 0 25 -6 9 -5 17 3 22 8 5 9 11
2 16 -6 4 -11 27 -12 52 -2 91 -8 140 -17 140 -5 0 -7 3 -4 6 4 3 17 1 30 -6
20 -10 21 -10 6 3 -10 8 -15 17 -11 21 4 4 -1 4 -11 0 -14 -5 -17 -4 -12 4 4
7 4 18 -1 25 -4 6 -8 19 -8 27 0 8 -4 21 -9 28 -5 8 -4 18 3 25 9 9 11 8 6 -4
-4 -10 -1 -20 4 -24 6 -3 8 -11 5 -17 -4 -7 -2 -8 4 -4 7 4 12 3 12 -3 0 -5
-6 -12 -12 -14 -7 -3 -8 -6 -3 -6 6 0 17 4 25 9 13 8 12 12 -6 24 -24 17 -29
62 -10 86 9 13 9 13 -6 2 -19 -15 -42 -7 -32 10 4 6 0 15 -7 20 -11 8 -10 9 3
4 10 -3 20 0 24 6 4 7 3 8 -5 4 -8 -5 -10 0 -7 18 3 19 1 23 -11 19 -11 -4
-11 -8 -3 -13 9 -5 9 -9 1 -14 -6 -4 -11 -4 -12 1 0 4 -2 19 -5 33 -3 17 -1
21 5 11 5 -8 11 -9 15 -3 3 6 -3 13 -14 17 -11 4 -18 11 -15 16 4 5 1 9 -6 9
-7 0 -9 3 -6 6 4 4 14 1 23 -7 16 -13 16 -12 5 8 -6 13 -17 22 -23 20 -7 -1
-13 7 -14 18 -1 11 -9 38 -18 59 -13 31 -14 41 -4 47 10 7 10 11 -1 21 -10 9
-12 10 -7 1 5 -8 2 -11 -7 -7 -9 3 -13 13 -10 25 3 11 0 19 -6 19 -7 0 -9 5
-6 10 3 6 1 10 -5 10 -7 0 -10 7 -6 15 3 8 0 15 -7 15 -7 1 -1 7 13 16 21 12
21 14 4 9 -27 -7 -53 19 -28 29 12 5 15 2 10 -9 -3 -9 -2 -13 4 -10 6 3 10 13
10 21 0 10 -8 13 -27 10 -26 -5 -27 -4 -9 9 10 8 24 11 30 8 6 -4 4 2 -4 13
-22 29 -24 30 -17 12 3 -10 0 -19 -9 -22 -24 -9 -26 -8 -14 14 9 16 6 24 -11
43 l-23 22 17 -27 c10 -16 14 -28 9 -28 -13 0 -33 48 -22 55 11 7 2 35 -12 35
-6 0 -5 -6 2 -15 9 -10 9 -15 1 -15 -10 0 -15 13 -12 33 0 4 -4 7 -10 7 -6 0
-10 10 -9 23 3 36 1 47 -11 47 -8 0 -8 -5 1 -15 7 -8 8 -15 3 -15 -5 0 -15 11
-21 25 -6 14 -17 25 -24 25 -6 0 -3 7 8 16 10 8 13 12 5 8 -9 -4 -20 2 -32 17
-17 22 -17 25 -1 44 9 11 10 14 2 8 -18 -16 -30 -16 -30 0 0 7 -9 18 -20 25
-12 7 -18 17 -15 21 3 5 0 11 -7 13 -7 3 -9 12 -5 22 4 10 12 14 19 10 9 -5 9
-3 -1 9 -7 9 -19 17 -25 17 -7 0 -6 -4 2 -9 11 -7 10 -9 -3 -14 -9 -4 -14 -3
-10 3 3 6 -1 13 -9 16 -21 8 -10 25 12 18 14 -5 14 -4 3 4 -8 6 -20 8 -27 5
-16 -6 -48 42 -38 58 5 9 2 10 -12 5 -10 -4 -15 -4 -11 0 3 4 -2 14 -12 23
-10 9 -23 26 -30 39 -7 12 -16 20 -22 17 -12 -8 -12 2 2 27 8 14 8 18 0 14 -6
-4 -16 2 -23 14 -7 11 -17 20 -22 20 -5 0 1 -11 14 -25 13 -14 21 -25 17 -25
-8 0 -77 73 -77 83 0 4 -8 15 -17 25 -10 10 -24 28 -32 40 -8 11 -23 23 -33
25 -24 7 -23 34 3 42 11 4 18 9 15 12 -3 3 -17 -2 -31 -11 -22 -14 -25 -15
-25 -1 0 8 -6 14 -12 12 -7 -1 -12 3 -11 10 2 6 -6 15 -17 18 -11 4 -20 12
-20 20 0 7 -7 16 -16 19 -8 3 -12 10 -9 16 3 5 1 18 -5 27 -9 16 -10 15 -5 -4
5 -17 2 -23 -10 -23 -9 0 -13 5 -10 10 3 6 1 10 -5 10 -6 0 -16 14 -21 30 -6
17 -15 30 -21 30 -5 0 -6 5 -2 12 5 7 3 8 -5 4 -9 -6 -9 -12 3 -25 9 -10 16
-21 16 -24 0 -13 -66 58 -80 86 -7 15 -18 27 -23 27 -6 0 -2 -9 8 -20 10 -11
13 -20 8 -20 -6 0 -14 7 -17 16 -4 9 -9 14 -12 11 -3 -2 -17 7 -31 20 -17 18
-21 28 -13 33 8 5 7 9 -5 14 -24 9 -32 7 -15 -4 13 -8 13 -10 -2 -10 -9 0 -20
9 -23 20 -3 11 -13 20 -21 20 -9 0 -12 5 -8 11 4 8 -1 9 -17 5 -13 -3 -18 -3
-11 0 16 8 5 25 -12 18 -8 -3 -17 0 -22 7 -5 8 -3 10 6 4 9 -5 11 -4 6 3 -4 7
-14 12 -23 12 -9 0 -24 10 -34 22 -11 11 -19 18 -19 13 0 -4 -7 -2 -15 5 -9 7
-14 19 -11 27 3 7 1 13 -4 13 -6 0 -10 -4 -10 -10 0 -16 -17 -12 -24 6 -3 8
-2 12 4 9 6 -3 10 -1 10 4 0 6 -5 11 -11 11 -5 0 -7 6 -3 13 4 7 3 9 -2 4 -5
-5 -10 -13 -10 -18 -3 -19 -4 -20 -16 -9 -55 46 -73 58 -79 54 -4 -2 -10 5
-14 16 -3 11 -11 20 -16 20 -6 0 -7 -5 -3 -12 4 -7 3 -8 -5 -4 -6 4 -9 11 -6
16 3 4 -2 13 -10 20 -13 11 -14 10 -9 -6 5 -16 4 -16 -5 -4 -6 8 -14 15 -18
15 -14 1 -53 25 -52 33 3 21 -2 42 -11 42 -7 0 -7 -6 0 -20 7 -14 7 -20 0 -20
-5 0 -10 5 -10 11 0 5 -4 7 -10 4 -5 -3 -10 -1 -10 5 0 6 -4 8 -10 5 -5 -3
-10 -3 -10 2 0 4 -15 15 -32 22 -18 8 -39 22 -46 30 -9 10 -11 11 -6 2 5 -10
3 -12 -6 -6 -10 6 -10 11 3 20 25 18 21 29 -4 11 -22 -15 -49 -12 -49 6 0 6 8
4 18 -3 14 -11 14 -10 -2 8 -16 19 -36 23 -36 7 0 -3 5 -2 12 2 7 4 8 3 4 -4
-8 -13 -56 5 -56 21 0 6 -3 8 -6 4 -4 -3 -13 1 -21 9 -8 8 -18 12 -23 9 -5 -3
-23 10 -41 27 -18 18 -30 27 -25 21 4 -7 3 -13 -1 -13 -15 0 -63 25 -63 32 0
4 6 6 13 4 6 -1 9 -1 4 1 -4 3 -5 8 -3 12 3 4 -1 8 -9 8 -8 0 -12 -4 -10 -8 3
-4 -2 -10 -11 -13 -8 -3 -12 -2 -9 4 3 6 0 10 -7 10 -11 0 -10 2 0 9 11 7 11
9 -2 14 -9 4 -15 3 -15 -1 3 -20 -4 -22 -33 -5 -18 10 -36 22 -39 27 -4 5 -14
6 -22 3 -19 -7 -40 13 -27 28 5 6 5 17 1 24 -6 9 -11 10 -15 2 -4 -6 -2 -11 5
-11 9 0 8 -4 -1 -15 -10 -12 -15 -12 -36 2 -13 8 -24 12 -24 9 0 -4 -10 -1
-22 6 -13 7 -26 12 -30 13 -4 0 -13 7 -20 15 -11 12 -11 12 5 1 11 -9 17 -10
17 -2 0 6 -5 11 -11 11 -5 0 -8 4 -4 9 3 5 0 13 -6 17 -7 4 -9 3 -6 -3 4 -6 1
-15 -6 -21 -16 -14 -80 15 -70 32 4 7 1 7 -7 -1 -10 -9 -19 -9 -42 3 -16 8
-33 12 -37 9 -5 -3 -11 0 -13 5 -2 6 -12 13 -23 15 -11 2 -21 4 -22 5 -2 2 -7
4 -13 5 -5 1 -13 4 -17 5 -5 1 -12 2 -16 1 -5 -1 -6 9 -2 21 5 20 5 21 -5 5
-9 -14 -15 -16 -25 -7 -8 7 -19 9 -24 6 -5 -4 -12 -2 -16 4 -4 6 -11 7 -17 4
-7 -5 -9 -1 -5 9 3 10 2 17 -2 17 -5 0 -11 -5 -13 -12 -5 -13 -28 -2 -28 13 0
6 5 7 10 4 6 -3 10 -2 10 4 0 5 -9 9 -19 8 -11 0 -18 -4 -15 -8 2 -4 -5 -7
-16 -6 -18 1 -24 9 -21 29 0 4 -6 5 -15 1 -13 -5 -13 -7 -2 -14 9 -6 9 -9 1
-9 -6 0 -18 7 -27 15 -16 16 -31 20 -22 7 3 -5 -10 -4 -29 2 -18 6 -31 14 -29
18 3 4 -6 7 -18 6 -41 -2 -49 2 -42 15 5 7 0 6 -11 -3 -10 -8 -16 -10 -12 -4
4 7 -5 11 -26 12 -17 0 -33 6 -35 11 -2 6 -8 9 -13 5 -14 -8 -50 6 -43 18 4 6
-3 5 -16 -2 -17 -9 -21 -9 -15 0 5 9 1 10 -14 5 -12 -4 -21 -2 -21 4 0 6 5 11
10 11 6 0 10 8 10 18 -1 16 -1 16 -11 -1 -6 -9 -15 -14 -21 -11 -7 5 -8 2 -3
-5 5 -9 2 -12 -11 -9 -11 2 -18 10 -16 18 2 10 0 11 -11 2 -17 -15 -50 -5 -40
12 4 7 2 7 -7 -1 -9 -8 -19 -9 -32 -2 -13 7 -18 6 -18 -3 0 -9 -3 -9 -10 2 -5
8 -10 11 -10 6 0 -4 -11 -1 -24 8 -17 10 -26 12 -28 4 -3 -8 -10 -8 -25 1 -12
6 -31 11 -42 11 -12 0 -21 6 -21 13 0 8 -4 7 -10 -3 -5 -8 -10 -10 -10 -4 0 6
-12 11 -27 12 -35 1 -55 5 -70 15 -6 4 -14 3 -17 -2 -4 -6 -19 -5 -39 1 -17 6
-38 13 -46 15 -7 2 -10 10 -7 19 3 9 2 12 -5 9 -6 -4 -8 -13 -5 -21 3 -8 1
-14 -4 -14 -6 0 -10 5 -10 11 0 5 -4 8 -9 5 -5 -3 -11 0 -14 8 -3 7 -18 14
-32 14 -17 0 -23 -3 -14 -8 6 -5 18 -6 26 -3 7 3 13 0 13 -5 0 -13 -54 -5 -58
9 -2 5 -8 9 -13 9 -6 0 -8 -4 -4 -9 3 -6 -3 -9 -14 -8 -16 1 -18 4 -8 16 10
12 9 13 -10 3 -25 -14 -56 -6 -47 12 3 6 -1 2 -10 -8 -15 -19 -16 -18 -25 5
-7 17 -10 19 -10 7 -1 -25 -26 -22 -40 5 -10 20 -11 20 -6 1 4 -14 0 -21 -9
-21 -9 0 -13 4 -10 8 2 4 -14 7 -36 5 -26 -2 -47 2 -56 11 -8 8 -14 10 -14 4
0 -14 -37 -14 -45 -1 -3 6 -11 10 -16 10 -6 0 -8 -4 -5 -9 9 -15 -57 -1 -76
16 -14 13 -17 12 -27 -4 -6 -10 -11 -12 -11 -5 0 9 -5 10 -19 2 -13 -6 -22 -7
-26 0 -3 5 -13 6 -23 3 -14 -5 -15 -3 -4 8 6 7 12 18 12 23 0 6 -7 0 -16 -12
-15 -21 -42 -32 -29 -12 3 6 1 10 -4 10 -6 0 -11 -4 -11 -10 0 -5 -5 -10 -11
-10 -5 0 -7 5 -4 10 3 6 1 10 -4 10 -6 0 -11 -5 -11 -11 0 -5 -5 -7 -10 -4 -6
4 -7 12 -3 18 3 7 -4 3 -17 -8 -13 -11 -21 -15 -18 -10 4 6 -5 16 -20 23 -19
9 -23 9 -14 0 16 -16 16 -33 0 -21 -7 5 -24 9 -38 8 -14 0 -31 5 -38 12 -7 7
-18 13 -25 13 -6 0 -2 -6 9 -14 13 -10 14 -14 4 -13 -8 2 -21 6 -27 10 -8 5
-13 3 -13 -4 0 -9 -3 -9 -14 0 -11 9 -15 9 -19 -1 -4 -8 -6 -7 -6 5 -1 9 -6
17 -12 17 -6 0 -9 -6 -6 -14 7 -17 -18 -15 -55 5 -21 11 -22 11 -10 -4 11 -13
10 -15 -7 -10 -12 3 -18 10 -15 17 3 6 -2 2 -12 -9 -16 -20 -16 -20 -11 5 l6
25 -20 -25 c-17 -21 -20 -21 -14 -5 5 16 4 18 -6 8 -7 -7 -19 -13 -27 -13 -8
0 -10 5 -6 13 6 8 3 8 -9 -1 -9 -8 -22 -12 -29 -9 -7 2 -25 1 -40 -4 -19 -5
-28 -3 -32 8 -9 21 -7 25 6 17 7 -4 8 -3 4 4 -9 14 -13 15 -20 3z m-146 -31
c0 -5 -5 -10 -11 -10 -5 0 -7 5 -4 10 3 6 8 10 11 10 2 0 4 -4 4 -10z m895
-20 c3 -5 1 -10 -4 -10 -6 0 -11 5 -11 10 0 6 2 10 4 10 3 0 8 -4 11 -10z
m4359 -3320 c-8 -8 -15 -6 -24 5 -9 11 -9 15 -1 15 7 0 9 6 5 13 -4 6 1 4 12
-5 13 -13 15 -21 8 -28z m-794 -1738 c0 -5 -7 -9 -15 -9 -8 0 -12 4 -9 9 3 4
9 8 15 8 5 0 9 -4 9 -8z m-7450 -646 c0 -2 -7 -7 -16 -10 -8 -3 -12 -2 -9 4 6
10 25 14 25 6z m351 -196 c11 0 17 -5 14 -10 -4 -6 -13 -7 -23 -1 -9 4 -24 6
-32 3 -13 -5 -13 -3 0 12 8 11 16 14 18 7 2 -6 13 -11 23 -11z m6029 -150 c0
-5 -2 -10 -4 -10 -3 0 -8 5 -11 10 -3 6 -1 10 4 10 6 0 11 -4 11 -10z m-4789
-288 c8 2 14 -1 14 -7 0 -5 -7 -9 -15 -7 -8 2 -23 4 -32 5 -13 1 -14 4 -6 15
8 9 13 10 18 2 4 -6 14 -10 21 -8z m3233 -41 c5 0 3 -8 -4 -16 -12 -14 -15
-14 -31 1 -12 11 -19 13 -19 5 0 -7 -5 -9 -11 -5 -24 14 12 23 65 15z m-2241
-120 c4 -1 7 -6 7 -12 0 -8 -4 -9 -13 0 -8 6 -16 8 -19 5 -3 -3 -9 -1 -12 4
-3 6 2 9 11 7 10 -2 21 -4 26 -4z m1366 -14 c0 -9 -2 -9 -5 0 -3 7 -13 9 -22
6 -14 -4 -14 -3 -2 5 16 12 30 7 29 -11z m-1292 -19 c-15 -9 -19 -4 -11 16 5
14 9 15 15 5 5 -8 3 -17 -4 -21z m1235 23 c8 12 9 12 6 0 -2 -8 -11 -15 -20
-17 -12 -1 -15 3 -10 14 4 12 7 13 10 3 4 -11 6 -11 14 0z m-232 -20 c0 -4 -6
-8 -12 -9 -7 0 -25 -3 -41 -5 -15 -2 -30 0 -33 5 -3 5 -13 7 -21 4 -8 -3 -11
-2 -8 4 3 5 19 7 35 5 16 -2 32 0 35 5 6 9 45 1 45 -9z m-295 -1 c3 -5 1 -10
-4 -10 -6 0 -11 5 -11 10 0 6 2 10 4 10 3 0 8 -4 11 -10z m3685 -20 c0 -5 -2
-10 -4 -10 -3 0 -8 5 -11 10 -3 6 -1 10 4 10 6 0 11 -4 11 -10z"/>
<path d="M5050 8740 c0 -5 5 -10 11 -10 5 0 7 5 4 10 -3 6 -8 10 -11 10 -2 0
-4 -4 -4 -10z"/>
<path d="M5395 8741 c-3 -5 -2 -12 3 -15 5 -3 9 1 9 9 0 17 -3 19 -12 6z"/>
<path d="M5550 8741 c0 -6 4 -13 10 -16 6 -3 7 1 4 9 -7 18 -14 21 -14 7z"/>
<path d="M5950 8739 c0 -5 5 -7 10 -4 6 3 10 8 10 11 0 2 -4 4 -10 4 -5 0 -10
-5 -10 -11z"/>
<path d="M4930 8736 c0 -2 8 -10 18 -17 15 -13 16 -12 3 4 -13 16 -21 21 -21
13z"/>
<path d="M5754 8715 c0 -14 4 -25 8 -25 4 0 7 9 5 20 -5 29 -13 33 -13 5z"/>
<path d="M4410 8720 c0 -5 5 -10 11 -10 5 0 7 5 4 10 -3 6 -8 10 -11 10 -2 0
-4 -4 -4 -10z"/>
<path d="M4655 8720 c3 -5 8 -10 11 -10 2 0 4 5 4 10 0 6 -5 10 -11 10 -5 0
-7 -4 -4 -10z"/>
<path d="M4870 8726 c0 -2 7 -7 16 -10 8 -3 12 -2 9 4 -6 10 -25 14 -25 6z"/>
<path d="M5664 8722 c4 -3 14 -7 22 -8 9 -1 13 0 10 4 -4 3 -14 7 -22 8 -9 1
-13 0 -10 -4z"/>
<path d="M5640 8711 c0 -6 4 -13 10 -16 6 -3 7 1 4 9 -7 18 -14 21 -14 7z"/>
<path d="M4095 8700 c3 -5 8 -10 11 -10 2 0 4 5 4 10 0 6 -5 10 -11 10 -5 0
-7 -4 -4 -10z"/>
<path d="M4216 8693 c-6 -14 -5 -15 5 -6 7 7 10 15 7 18 -3 3 -9 -2 -12 -12z"/>
<path d="M4292 8701 c-11 -7 -11 -9 0 -14 9 -3 15 1 15 9 0 8 -1 14 -1 14 -1
0 -7 -4 -14 -9z"/>
<path d="M4370 8698 c0 -4 4 -8 9 -8 6 0 12 4 15 8 3 5 -1 9 -9 9 -8 0 -15 -4
-15 -9z"/>
<path d="M4458 8698 c5 -5 16 -8 23 -6 8 3 3 7 -10 11 -17 4 -21 3 -13 -5z"/>
<path d="M5828 8698 c5 -5 16 -8 23 -6 8 3 3 7 -10 11 -17 4 -21 3 -13 -5z"/>
<path d="M5895 8691 c-3 -5 0 -13 6 -17 7 -4 9 -3 5 4 -3 5 0 13 6 15 9 4 10
6 1 6 -6 1 -14 -3 -18 -8z"/>
<path d="M4055 8681 c-3 -5 -2 -12 3 -15 5 -3 9 1 9 9 0 17 -3 19 -12 6z"/>
<path d="M6015 8680 c3 -5 8 -10 11 -10 2 0 4 5 4 10 0 6 -5 10 -11 10 -5 0
-7 -4 -4 -10z"/>
<path d="M6156 8682 c-3 -5 1 -9 9 -9 8 0 12 4 9 9 -3 4 -7 8 -9 8 -2 0 -6 -4
-9 -8z"/>
<path d="M3914 8646 c1 -8 5 -18 8 -22 4 -3 5 1 4 10 -1 8 -5 18 -8 22 -4 3
-5 -1 -4 -10z"/>
<path d="M3815 8640 c-3 -5 -1 -10 4 -10 6 0 11 5 11 10 0 6 -2 10 -4 10 -3 0
-8 -4 -11 -10z"/>
<path d="M3975 8640 c3 -5 8 -10 11 -10 2 0 4 5 4 10 0 6 -5 10 -11 10 -5 0
-7 -4 -4 -10z"/>
<path d="M6348 8637 c7 -8 8 -18 4 -22 -4 -5 -2 -5 5 -2 6 4 13 2 15 -5 3 -7
7 -5 11 6 4 10 3 15 -3 11 -6 -3 -10 -2 -10 3 0 6 -7 13 -16 16 -13 5 -14 4
-6 -7z"/>
<path d="M6310 8630 c0 -5 5 -10 10 -10 6 0 10 5 10 10 0 6 -4 10 -10 10 -5 0
-10 -4 -10 -10z"/>
<path d="M6435 8629 c-4 -6 -5 -12 -2 -15 2 -3 7 2 10 11 7 17 1 20 -8 4z"/>
<path d="M3796 8617 c3 -10 9 -15 12 -12 3 3 0 11 -7 18 -10 9 -11 8 -5 -6z"/>
<path d="M6465 8617 c-15 -12 -16 -15 -4 -22 8 -5 11 -5 7 0 -4 4 0 14 10 21
23 18 11 18 -13 1z"/>
<path d="M3615 8600 c-3 -5 -1 -10 4 -10 6 0 11 5 11 10 0 6 -2 10 -4 10 -3 0
-8 -4 -11 -10z"/>
<path d="M6577 8595 c6 -18 5 -19 -13 -5 -18 14 -18 14 -5 -2 7 -10 17 -16 21
-13 5 3 11 -1 13 -7 3 -7 6 -8 6 -2 1 5 -6 19 -14 30 -15 19 -15 19 -8 -1z"/>
<path d="M6615 8601 c-3 -5 0 -13 7 -18 16 -10 42 -14 33 -5 -4 4 -12 7 -18 7
-7 1 -11 6 -9 13 2 14 -4 16 -13 3z"/>
<path d="M3556 8573 c-6 -14 -5 -15 5 -6 7 7 10 15 7 18 -3 3 -9 -2 -12 -12z"/>
<path d="M6715 8570 c6 -10 4 -12 -11 -6 -15 6 -17 5 -6 -5 9 -9 15 -10 23 -2
8 8 7 13 -2 18 -8 6 -10 4 -4 -5z"/>
<path d="M6755 8570 c-3 -5 -2 -18 4 -27 7 -14 9 -12 8 10 -2 30 -3 31 -12 17z"/>
<path d="M3455 8560 c-3 -5 -1 -10 4 -10 6 0 11 5 11 10 0 6 -2 10 -4 10 -3 0
-8 -4 -11 -10z"/>
<path d="M3357 8533 c-10 -9 -9 -23 1 -23 5 0 9 7 9 15 0 17 -1 18 -10 8z"/>
<path d="M3196 8513 c-6 -14 -5 -15 5 -6 7 7 10 15 7 18 -3 3 -9 -2 -12 -12z"/>
<path d="M6970 8505 c-7 -9 -11 -17 -9 -20 3 -2 10 5 17 15 14 24 10 26 -8 5z"/>
<path d="M6910 8500 c0 -5 5 -10 10 -10 6 0 10 5 10 10 0 6 -4 10 -10 10 -5 0
-10 -4 -10 -10z"/>
<path d="M7051 8464 c0 -11 3 -14 6 -6 3 7 2 16 -1 19 -3 4 -6 -2 -5 -13z"/>
<path d="M3036 8458 c3 -5 10 -6 15 -3 13 9 11 12 -6 12 -8 0 -12 -4 -9 -9z"/>
<path d="M3071 8447 c-13 -21 -12 -21 5 -5 10 10 16 20 13 22 -3 3 -11 -5 -18
-17z"/>
<path d="M3105 8460 c-3 -6 1 -7 9 -4 18 7 21 14 7 14 -6 0 -13 -4 -16 -10z"/>
<path d="M7116 8449 c9 -10 21 -16 25 -13 13 8 11 14 -3 12 -7 -2 -12 2 -11 8
1 6 -5 11 -13 11 -12 0 -11 -4 2 -18z"/>
<path d="M2999 8448 c-5 -18 -6 -38 -1 -34 7 8 12 36 6 36 -2 0 -4 -1 -5 -2z"/>
<path d="M7177 8439 c7 -7 15 -10 18 -7 3 3 -2 9 -12 12 -14 6 -15 5 -6 -5z"/>
<path d="M7255 8440 c-3 -5 -1 -10 4 -10 6 0 11 5 11 10 0 6 -2 10 -4 10 -3 0
-8 -4 -11 -10z"/>
<path d="M2955 8410 c-3 -5 -1 -10 4 -10 6 0 11 5 11 10 0 6 -2 10 -4 10 -3 0
-8 -4 -11 -10z"/>
<path d="M2921 8401 c-8 -5 -9 -11 -3 -15 5 -3 12 1 16 9 6 17 6 18 -13 6z"/>
<path d="M7379 8403 c-1 -5 -1 -12 0 -17 1 -5 -5 -6 -14 -3 -21 9 -19 0 3 -12
15 -8 18 -6 18 15 0 22 -5 33 -7 17z"/>
<path d="M7330 8381 c0 -6 4 -13 10 -16 6 -3 7 1 4 9 -7 18 -14 21 -14 7z"/>
<path d="M2826 8361 c-4 -5 3 -7 14 -4 23 6 26 13 6 13 -8 0 -17 -4 -20 -9z"/>
<path d="M7475 8353 c3 -3 0 -11 -5 -18 -7 -8 -5 -12 4 -12 14 0 16 22 3 32
-4 3 -5 2 -2 -2z"/>
<path d="M2760 8338 c0 -4 4 -8 9 -8 6 0 12 4 15 8 3 5 -1 9 -9 9 -8 0 -15 -4
-15 -9z"/>
<path d="M7425 8340 c3 -5 8 -10 11 -10 2 0 4 5 4 10 0 6 -5 10 -11 10 -5 0
-7 -4 -4 -10z"/>
<path d="M2625 8300 c-3 -6 1 -7 9 -4 18 7 21 14 7 14 -6 0 -13 -4 -16 -10z"/>
<path d="M7557 8299 c7 -7 15 -10 18 -7 3 3 -2 9 -12 12 -14 6 -15 5 -6 -5z"/>
<path d="M7618 8277 c-10 -6 -8 -7 4 -4 9 3 18 1 21 -6 2 -7 6 -5 9 4 7 18
-14 21 -34 6z"/>
<path d="M7704 8263 c4 -4 16 -8 28 -10 28 -4 18 6 -12 12 -12 2 -20 1 -16 -2z"/>
<path d="M2485 8240 c-16 -7 -17 -9 -3 -9 9 -1 20 4 23 9 7 11 7 11 -20 0z"/>
<path d="M7724 8229 c-4 -7 -3 -9 4 -5 5 3 13 0 15 -6 4 -9 6 -10 6 -1 1 17
-16 25 -25 12z"/>
<path d="M2440 8220 c-9 -6 -10 -10 -3 -10 6 0 15 5 18 10 8 12 4 12 -15 0z"/>
<path d="M7766 8218 c3 -4 9 -8 15 -8 5 0 9 4 9 8 0 5 -7 9 -15 9 -8 0 -12 -4
-9 -9z"/>
<path d="M7850 8206 c0 -2 7 -7 16 -10 8 -3 12 -2 9 4 -6 10 -25 14 -25 6z"/>
<path d="M7891 8205 c1 -19 18 -51 18 -35 0 8 -4 22 -9 30 -5 8 -9 11 -9 5z"/>
<path d="M2310 8186 c0 -2 7 -7 16 -10 8 -3 12 -2 9 4 -6 10 -25 14 -25 6z"/>
<path d="M2250 8146 c0 -2 7 -7 16 -10 8 -3 12 -2 9 4 -6 10 -25 14 -25 6z"/>
<path d="M8034 8109 c-2 -33 4 -33 11 -1 2 12 1 24 -3 26 -4 2 -8 -9 -8 -25z"/>
<path d="M2165 8100 c-3 -5 -1 -10 4 -10 6 0 11 5 11 10 0 6 -2 10 -4 10 -3 0
-8 -4 -11 -10z"/>
<path d="M8070 8101 c0 -6 4 -13 10 -16 6 -3 7 1 4 9 -7 18 -14 21 -14 7z"/>
<path d="M8115 8060 c-16 -7 -17 -9 -3 -9 9 -1 20 4 23 9 7 11 7 11 -20 0z"/>
<path d="M8160 8056 c7 -7 13 -7 20 0 6 6 3 10 -10 10 -13 0 -16 -4 -10 -10z"/>
<path d="M8147 8039 c7 -7 15 -10 18 -7 3 3 -2 9 -12 12 -14 6 -15 5 -6 -5z"/>
<path d="M8215 8041 c-3 -5 -2 -12 3 -15 5 -3 9 1 9 9 0 17 -3 19 -12 6z"/>
<path d="M8181 8028 c-1 -21 15 -32 25 -17 4 7 3 9 -4 5 -6 -3 -13 2 -15 11
-4 16 -5 16 -6 1z"/>
<path d="M1990 7996 c7 -7 13 -7 20 0 6 6 3 10 -10 10 -13 0 -16 -4 -10 -10z"/>
<path d="M8260 7996 c7 -7 13 -7 20 0 6 6 3 10 -10 10 -13 0 -16 -4 -10 -10z"/>
<path d="M8317 7973 c-10 -9 -9 -23 1 -23 5 0 9 7 9 15 0 17 -1 18 -10 8z"/>
<path d="M1907 7959 c7 -7 15 -10 18 -7 3 3 -2 9 -12 12 -14 6 -15 5 -6 -5z"/>
<path d="M1870 7945 c-7 -9 -11 -17 -9 -20 3 -2 10 5 17 15 14 24 10 26 -8 5z"/>
<path d="M8340 7939 c0 -4 6 -9 13 -12 8 -3 14 0 14 7 0 7 -6 13 -14 13 -7 0
-13 -4 -13 -8z"/>
<path d="M8394 7932 c3 -5 0 -13 -6 -15 -9 -4 -10 -6 -1 -6 17 -1 25 16 12 25
-7 4 -9 3 -5 -4z"/>
<path d="M1794 7899 c0 -10 4 -19 8 -19 4 0 8 6 8 14 0 8 -4 17 -8 20 -4 2 -8
-4 -8 -15z"/>
<path d="M8450 7873 c0 -6 8 -17 18 -24 16 -13 16 -13 2 6 -8 11 -16 22 -17
24 -2 2 -3 0 -3 -6z"/>
<path d="M8555 7869 c-4 -6 -5 -12 -2 -15 2 -3 7 2 10 11 7 17 1 20 -8 4z"/>
<path d="M8576 7842 c-2 -4 -1 -14 4 -22 7 -11 9 -9 7 8 -1 24 -3 26 -11 14z"/>
<path d="M8570 7796 c0 -2 6 -9 14 -15 11 -9 16 -9 22 0 4 8 3 9 -4 5 -7 -4
-12 -2 -12 3 0 6 -4 11 -10 11 -5 0 -10 -2 -10 -4z"/>
<path d="M8620 7755 c14 -17 30 -20 30 -4 0 5 -4 7 -10 4 -5 -3 -10 -1 -10 4
0 6 -5 11 -11 11 -8 0 -8 -5 1 -15z"/>
<path d="M8696 7762 c-2 -4 -1 -14 4 -22 7 -11 9 -9 7 8 -1 24 -3 26 -11 14z"/>
<path d="M1556 7738 c3 -5 10 -6 15 -3 13 9 11 12 -6 12 -8 0 -12 -4 -9 -9z"/>
<path d="M1516 7717 c3 -10 9 -15 12 -12 3 3 0 11 -7 18 -10 9 -11 8 -5 -6z"/>
<path d="M8756 7722 c-2 -4 -1 -14 4 -22 7 -11 9 -9 7 8 -1 24 -3 26 -11 14z"/>
<path d="M8726 7691 c-4 -5 -2 -12 3 -15 5 -4 12 -2 15 3 4 5 2 12 -3 15 -5 4
-12 2 -15 -3z"/>
<path d="M1475 7680 c3 -5 8 -10 11 -10 2 0 4 5 4 10 0 6 -5 10 -11 10 -5 0
-7 -4 -4 -10z"/>
<path d="M8772 7656 c7 -8 15 -12 17 -11 5 6 -10 25 -20 25 -5 0 -4 -6 3 -14z"/>
<path d="M8821 7656 c-9 -11 -9 -16 0 -22 7 -4 9 -3 5 4 -3 6 2 15 11 21 10 6
13 11 7 11 -6 0 -17 -6 -23 -14z"/>
<path d="M1315 7580 c-3 -5 -1 -10 4 -10 6 0 11 5 11 10 0 6 -2 10 -4 10 -3 0
-8 -4 -11 -10z"/>
<path d="M8896 7575 c4 -8 8 -15 10 -15 2 0 4 7 4 15 0 8 -4 15 -10 15 -5 0
-7 -7 -4 -15z"/>
<path d="M9010 7520 c0 -5 5 -10 11 -10 5 0 7 5 4 10 -3 6 -8 10 -11 10 -2 0
-4 -4 -4 -10z"/>
<path d="M8950 7516 c0 -2 6 -9 14 -15 11 -9 16 -9 22 0 4 8 3 9 -4 5 -7 -4
-12 -2 -12 3 0 6 -4 11 -10 11 -5 0 -10 -2 -10 -4z"/>
<path d="M1155 7460 c-3 -5 -1 -10 4 -10 6 0 11 5 11 10 0 6 -2 10 -4 10 -3 0
-8 -4 -11 -10z"/>
<path d="M9057 7443 c-4 -3 -7 -11 -7 -17 0 -6 5 -5 12 2 6 6 9 14 7 17 -3 3
-9 2 -12 -2z"/>
<path d="M9134 7402 c3 -5 0 -12 -6 -15 -10 -4 -10 -7 -1 -16 7 -6 11 -8 8 -5
-3 4 0 13 6 20 7 8 6 14 -2 20 -7 4 -9 3 -5 -4z"/>
<path d="M1055 7361 c-3 -5 -2 -12 3 -15 5 -3 9 1 9 9 0 17 -3 19 -12 6z"/>
<path d="M9190 7320 c8 -5 20 -10 25 -10 6 0 3 5 -5 10 -8 5 -19 10 -25 10 -5
0 -3 -5 5 -10z"/>
<path d="M9229 7281 c7 -5 10 -14 7 -20 -4 -6 -5 -11 -2 -11 3 0 10 8 15 18 8
14 5 18 -12 19 -16 2 -18 0 -8 -6z"/>
<path d="M933 7215 c0 -8 4 -12 9 -9 5 3 6 10 3 15 -9 13 -12 11 -12 -6z"/>
<path d="M9289 7212 c-13 -15 -12 -16 3 -4 13 10 17 10 21 0 4 -9 6 -9 6 -1 2
20 -16 24 -30 5z"/>
<path d="M893 7188 c-15 -20 -25 -38 -20 -38 3 0 12 11 21 25 17 26 16 35 -1
13z"/>
<path d="M9334 7192 c-9 -5 -8 -10 1 -19 11 -10 13 -9 12 7 -1 11 -1 20 -2 20
0 0 -5 -4 -11 -8z"/>
<path d="M9355 7151 c-9 -15 13 -23 32 -11 15 9 14 10 -6 4 -16 -4 -21 -3 -17
5 4 6 5 11 2 11 -3 0 -7 -4 -11 -9z"/>
<path d="M846 7115 c-3 -9 -10 -14 -14 -11 -5 3 -9 -2 -9 -10 0 -12 5 -11 21
5 11 11 17 23 14 26 -3 3 -8 -1 -12 -10z"/>
<path d="M9386 7113 c-4 -10 0 -23 11 -32 15 -15 16 -15 5 0 -7 9 -10 24 -6
33 3 9 4 16 1 16 -3 0 -8 -8 -11 -17z"/>
<path d="M9411 7104 c0 -11 3 -14 6 -6 3 7 2 16 -1 19 -3 4 -6 -2 -5 -13z"/>
<path d="M9437 7103 c-11 -11 -8 -21 9 -27 13 -5 14 -4 6 7 -7 8 -9 17 -5 20
3 4 4 7 1 7 -2 0 -8 -3 -11 -7z"/>
<path d="M790 7059 c0 -5 5 -7 10 -4 6 3 10 8 10 11 0 2 -4 4 -10 4 -5 0 -10
-5 -10 -11z"/>
<path d="M706 7002 c-3 -5 1 -9 9 -9 8 0 12 4 9 9 -3 4 -7 8 -9 8 -2 0 -6 -4
-9 -8z"/>
<path d="M9475 7000 c3 -5 8 -10 11 -10 2 0 4 5 4 10 0 6 -5 10 -11 10 -5 0
-7 -4 -4 -10z"/>
<path d="M9502 6973 c3 -19 28 -31 28 -13 0 6 -5 8 -12 4 -8 -5 -9 -2 -5 9 3
10 2 17 -4 17 -6 0 -9 -8 -7 -17z"/>
<path d="M9540 6940 c0 -5 5 -10 11 -10 5 0 7 5 4 10 -3 6 -8 10 -11 10 -2 0
-4 -4 -4 -10z"/>
<path d="M9557 6906 c-3 -8 0 -22 7 -32 10 -13 15 -14 21 -4 5 9 4 11 -3 6
-12 -7 -16 5 -13 32 2 16 -6 15 -12 -2z"/>
<path d="M9585 6900 c-3 -6 1 -7 9 -4 18 7 21 14 7 14 -6 0 -13 -4 -16 -10z"/>
<path d="M586 6798 c3 -5 10 -6 15 -3 13 9 11 12 -6 12 -8 0 -12 -4 -9 -9z"/>
<path d="M555 6791 c-6 -11 13 -26 22 -17 4 3 1 6 -6 6 -7 0 -9 5 -6 10 3 6 4
10 1 10 -3 0 -7 -4 -11 -9z"/>
<path d="M9639 6777 c6 -8 8 -16 6 -19 -3 -3 5 -12 18 -21 17 -11 28 -12 38
-5 12 8 11 9 -1 5 -15 -5 -52 15 -51 27 2 19 0 26 -10 26 -8 0 -9 -4 0 -13z"/>
<path d="M9670 6770 c6 -11 16 -20 23 -19 9 0 9 2 -1 6 -6 2 -10 8 -7 13 3 4
-2 11 -10 14 -13 4 -14 2 -5 -14z"/>
<path d="M515 6721 c-3 -5 -2 -12 3 -15 5 -3 9 1 9 9 0 17 -3 19 -12 6z"/>
<path d="M9706 6694 c-11 -8 -16 -14 -10 -14 13 0 39 18 34 24 -3 2 -14 -2
-24 -10z"/>
<path d="M496 6682 c-3 -5 1 -9 9 -9 8 0 12 4 9 9 -3 4 -7 8 -9 8 -2 0 -6 -4
-9 -8z"/>
<path d="M9715 6669 c-4 -6 -4 -13 -1 -16 3 -4 6 -1 6 6 0 7 5 9 12 5 7 -4 8
-3 4 4 -9 15 -13 15 -21 1z"/>
<path d="M9735 6620 c3 -5 8 -10 11 -10 2 0 4 5 4 10 0 6 -5 10 -11 10 -5 0
-7 -4 -4 -10z"/>
<path d="M9830 6579 c0 -5 5 -7 10 -4 6 3 10 8 10 11 0 2 -4 4 -10 4 -5 0 -10
-5 -10 -11z"/>
<path d="M9780 6546 c0 -2 7 -6 15 -10 8 -3 15 -1 15 4 0 6 -7 10 -15 10 -8 0
-15 -2 -15 -4z"/>
<path d="M9829 6519 c5 -6 7 -18 4 -25 -3 -8 -1 -14 5 -14 13 0 9 27 -6 40 -8
7 -9 7 -3 -1z"/>
<path d="M9857 6475 c-4 -8 -3 -16 1 -19 4 -3 9 4 9 15 2 23 -3 25 -10 4z"/>
<path d="M365 6420 c-3 -5 -1 -10 4 -10 6 0 11 5 11 10 0 6 -2 10 -4 10 -3 0
-8 -4 -11 -10z"/>
<path d="M338 6398 c5 -5 16 -8 23 -6 8 3 3 7 -10 11 -17 4 -21 3 -13 -5z"/>
<path d="M9908 6323 c7 -3 16 -2 19 1 4 3 -2 6 -13 5 -11 0 -14 -3 -6 -6z"/>
<path d="M312 6301 c-11 -7 -11 -9 0 -14 9 -3 15 1 15 9 0 8 -1 14 -1 14 -1 0
-7 -4 -14 -9z"/>
<path d="M9907 6283 c24 -39 25 -40 21 -18 -3 20 -21 45 -33 45 -3 0 2 -12 12
-27z"/>
<path d="M9947 6233 c4 -9 9 -10 18 -3 6 5 15 8 18 5 4 -3 5 -2 2 2 -10 13
-43 10 -38 -4z"/>
<path d="M9943 6203 c-16 -6 2 -43 20 -43 8 0 7 3 -2 9 -8 5 -11 16 -8 25 4 9
5 16 4 15 -1 0 -8 -3 -14 -6z"/>
<path d="M10000 6180 c-9 -6 -10 -10 -3 -10 6 0 15 5 18 10 8 12 4 12 -15 0z"/>
<path d="M235 6161 c-3 -5 -2 -12 3 -15 5 -3 9 1 9 9 0 17 -3 19 -12 6z"/>
<path d="M261 6144 c0 -11 3 -14 6 -6 3 7 2 16 -1 19 -3 4 -6 -2 -5 -13z"/>
<path d="M9963 6144 c9 -3 17 -10 17 -15 0 -6 -4 -8 -8 -5 -4 2 -9 -5 -9 -17
-2 -15 0 -18 6 -8 6 9 11 10 15 2 9 -14 26 -14 26 -1 0 6 -5 9 -12 8 -7 -2
-12 6 -13 17 0 12 -8 20 -20 22 -16 1 -16 1 -2 -3z"/>
<path d="M10010 6061 c0 -11 4 -22 9 -25 4 -3 6 6 3 19 -5 30 -12 33 -12 6z"/>
<path d="M176 6007 c3 -10 9 -15 12 -12 3 3 0 11 -7 18 -10 9 -11 8 -5 -6z"/>
<path d="M10030 6001 c0 -5 8 -15 18 -22 15 -12 16 -12 5 2 -7 9 -10 19 -6 22
3 4 1 7 -5 7 -7 0 -12 -4 -12 -9z"/>
<path d="M10024 5938 l-19 -23 23 19 c21 18 27 26 19 26 -2 0 -12 -10 -23 -22z"/>
<path d="M10067 5919 c7 -7 15 -10 18 -7 3 3 -2 9 -12 12 -14 6 -15 5 -6 -5z"/>
<path d="M10070 5880 c0 -5 5 -10 11 -10 5 0 7 5 4 10 -3 6 -8 10 -11 10 -2 0
-4 -4 -4 -10z"/>
<path d="M10050 5866 c0 -8 4 -17 9 -20 5 -4 7 3 4 14 -6 23 -13 26 -13 6z"/>
<path d="M155 5800 c-3 -5 -1 -10 4 -10 6 0 11 5 11 10 0 6 -2 10 -4 10 -3 0
-8 -4 -11 -10z"/>
<path d="M10074 5795 c-3 -8 -4 -20 -2 -27 3 -7 7 -1 10 15 6 29 1 36 -8 12z"/>
<path d="M155 5770 c-3 -6 1 -7 9 -4 18 7 21 14 7 14 -6 0 -13 -4 -16 -10z"/>
<path d="M10096 5727 c3 -10 9 -15 12 -12 3 3 0 11 -7 18 -10 9 -11 8 -5 -6z"/>
<path d="M10053 5715 c0 -8 3 -13 5 -10 3 3 10 0 17 -5 8 -7 12 -5 12 5 0 8
-3 13 -5 10 -3 -3 -10 0 -17 5 -8 7 -12 5 -12 -5z"/>
<path d="M10063 5670 c-2 -23 13 -35 23 -19 5 8 3 9 -6 4 -10 -6 -12 -4 -7 8
3 9 3 18 -1 21 -4 3 -8 -4 -9 -14z"/>
<path d="M10095 5680 c-3 -5 -1 -10 4 -10 6 0 11 5 11 10 0 6 -2 10 -4 10 -3
0 -8 -4 -11 -10z"/>
<path d="M10090 5630 c-9 -6 -10 -10 -3 -10 6 0 15 5 18 10 8 12 4 12 -15 0z"/>
<path d="M10113 5595 c0 -8 4 -12 9 -9 5 3 6 10 3 15 -9 13 -12 11 -12 -6z"/>
<path d="M10064 5589 c-3 -6 0 -15 7 -20 8 -5 10 -9 5 -9 -5 0 -3 -7 4 -15 10
-12 10 -15 0 -15 -8 0 -11 -2 -8 -5 7 -8 38 5 38 16 0 5 -6 8 -12 7 -7 -2 -12
5 -10 15 2 9 -2 17 -8 17 -6 0 -8 5 -5 10 3 6 4 10 1 10 -3 0 -8 -5 -12 -11z"/>
<path d="M106 5538 c3 -5 10 -6 15 -3 13 9 11 12 -6 12 -8 0 -12 -4 -9 -9z"/>
<path d="M10096 5512 c-2 -4 -1 -14 4 -22 7 -11 9 -9 7 8 -1 24 -3 26 -11 14z"/>
<path d="M10125 5500 c-3 -6 1 -7 9 -4 18 7 21 14 7 14 -6 0 -13 -4 -16 -10z"/>
<path d="M10106 5458 c3 -4 9 -8 15 -8 5 0 9 4 9 8 0 5 -7 9 -15 9 -8 0 -12
-4 -9 -9z"/>
<path d="M124 5379 c-4 -7 -3 -9 4 -5 5 3 13 0 15 -6 4 -9 6 -10 6 -1 1 17
-16 25 -25 12z"/>
<path d="M10095 5351 c-3 -5 -2 -12 3 -15 5 -3 9 1 9 9 0 17 -3 19 -12 6z"/>
<path d="M10067 5324 c-3 -4 -2 -15 4 -26 5 -10 7 -24 3 -30 -4 -6 -3 -8 4 -4
5 3 12 1 14 -6 3 -7 7 -5 11 6 4 9 3 15 -2 12 -12 -8 -22 20 -15 39 6 15 -7
21 -19 9z"/>
<path d="M10101 5304 c0 -11 3 -14 6 -6 3 7 2 16 -1 19 -3 4 -6 -2 -5 -13z"/>
<path d="M133 5289 c-2 -23 3 -25 10 -4 4 8 3 16 -1 19 -4 3 -9 -4 -9 -15z"/>
<path d="M130 5241 c0 -6 4 -13 10 -16 6 -3 7 1 4 9 -7 18 -14 21 -14 7z"/>
<path d="M10065 5240 c-8 -13 9 -20 24 -11 10 6 9 10 -3 14 -8 3 -18 2 -21 -3z"/>
<path d="M10114 5226 c1 -8 5 -18 8 -22 4 -3 5 1 4 10 -1 8 -5 18 -8 22 -4 3
-5 -1 -4 -10z"/>
<path d="M10085 5210 c-4 -6 -11 -8 -16 -5 -5 4 -9 3 -10 -2 0 -4 -2 -16 -4
-26 -2 -9 1 -15 6 -11 5 3 6 10 3 16 -5 8 -1 9 12 4 10 -4 15 -4 11 0 -4 4 -2
13 4 21 6 7 9 13 6 13 -3 0 -9 -5 -12 -10z"/>
<path d="M153 5195 c0 -8 4 -12 9 -9 4 3 8 9 8 15 0 5 -4 9 -8 9 -5 0 -9 -7
-9 -15z"/>
<path d="M10090 5140 c-9 -6 -10 -10 -3 -10 6 0 15 5 18 10 8 12 4 12 -15 0z"/>
<path d="M119 5093 c-13 -16 -12 -17 4 -4 9 7 17 15 17 17 0 8 -8 3 -21 -13z"/>
<path d="M10065 5090 c-4 -11 -10 -18 -14 -16 -4 3 -6 -5 -5 -17 1 -12 3 -28
3 -34 1 -18 18 -16 18 2 0 8 -4 15 -9 15 -10 0 10 42 25 51 6 4 5 9 -1 13 -6
3 -13 -3 -17 -14z"/>
<path d="M158 5093 c7 -3 16 -2 19 1 4 3 -2 6 -13 5 -11 0 -14 -3 -6 -6z"/>
<path d="M136 5053 c-6 -14 -5 -15 5 -6 7 7 10 15 7 18 -3 3 -9 -2 -12 -12z"/>
<path d="M10026 5014 c-9 -23 -8 -24 17 -23 16 1 17 3 5 6 -10 2 -15 10 -11
19 3 8 3 14 0 14 -3 0 -8 -7 -11 -16z"/>
<path d="M177 4976 c-4 -10 -1 -13 8 -9 8 3 12 9 9 14 -7 12 -11 11 -17 -5z"/>
<path d="M180 4940 c0 -5 5 -10 11 -10 5 0 7 -5 3 -12 -4 -7 -3 -8 5 -4 9 6 9
11 0 22 -14 17 -19 18 -19 4z"/>
<path d="M10055 4940 c3 -5 8 -10 11 -10 2 0 4 5 4 10 0 6 -5 10 -11 10 -5 0
-7 -4 -4 -10z"/>
<path d="M200 4840 c-12 -7 -10 -9 7 -7 12 0 19 5 17 9 -6 10 -6 10 -24 -2z"/>
<path d="M10000 4830 c-8 -5 -11 -10 -6 -10 5 0 1 -10 -10 -22 -10 -12 -13
-18 -6 -14 6 4 12 2 12 -3 0 -6 -4 -11 -10 -11 -5 0 -10 -5 -10 -11 0 -8 4 -9
13 0 8 6 16 9 19 6 2 -3 5 2 5 10 0 8 -4 15 -9 15 -5 0 -6 5 -3 10 4 6 11 7
17 4 7 -5 8 -2 3 6 -4 7 -2 16 6 21 8 5 10 9 4 9 -5 0 -17 -5 -25 -10z"/>
<path d="M10030 4799 c0 -5 5 -7 10 -4 6 3 10 8 10 11 0 2 -4 4 -10 4 -5 0
-10 -5 -10 -11z"/>
<path d="M216 4782 c-3 -5 1 -9 9 -9 8 0 12 4 9 9 -3 4 -7 8 -9 8 -2 0 -6 -4
-9 -8z"/>
<path d="M235 4750 c3 -5 8 -10 11 -10 2 0 4 5 4 10 0 6 -5 10 -11 10 -5 0 -7
-4 -4 -10z"/>
<path d="M9990 4742 c0 -5 7 -9 15 -9 8 0 12 4 9 9 -3 4 -9 8 -15 8 -5 0 -9
-4 -9 -8z"/>
<path d="M217 4715 c-4 -8 -3 -16 1 -19 4 -3 9 4 9 15 2 23 -3 25 -10 4z"/>
<path d="M250 4680 c0 -5 5 -10 11 -10 5 0 7 5 4 10 -3 6 -8 10 -11 10 -2 0
-4 -4 -4 -10z"/>
<path d="M9936 4653 c-6 -14 -5 -15 5 -6 7 7 10 15 7 18 -3 3 -9 -2 -12 -12z"/>
<path d="M9965 4659 c-3 -4 2 -6 10 -5 21 3 28 13 10 13 -9 0 -18 -4 -20 -8z"/>
<path d="M250 4596 c0 -2 8 -10 18 -17 15 -13 16 -12 3 4 -13 16 -21 21 -21
13z"/>
<path d="M9905 4575 c0 -13 4 -27 8 -31 4 -5 5 0 1 10 -5 14 -4 17 4 12 16
-10 15 9 -1 22 -10 9 -13 6 -12 -13z"/>
<path d="M313 4548 c-2 -18 0 -20 7 -8 12 18 13 30 2 30 -4 0 -9 -10 -9 -22z"/>
<path d="M330 4530 c0 -5 5 -10 11 -10 5 0 7 5 4 10 -3 6 -8 10 -11 10 -2 0
-4 -4 -4 -10z"/>
<path d="M9840 4445 c-13 -14 -20 -25 -16 -25 3 0 -1 -15 -11 -32 -9 -18 -18
-36 -19 -40 -1 -5 -3 -11 -4 -15 -1 -5 -2 -11 -2 -14 1 -4 -10 -17 -23 -29
-30 -28 -32 -40 -7 -40 26 0 34 11 21 27 -14 17 2 17 20 1 9 -9 12 -9 7 -1 -3
6 -3 13 1 16 5 2 2 2 -4 1 -7 -2 -12 4 -10 14 4 27 17 43 30 35 7 -4 6 0 -2
10 -14 18 -2 24 15 7 7 -7 11 -6 11 4 0 8 -4 13 -8 10 -4 -2 -10 0 -14 6 -3 5
-1 10 5 10 6 0 8 5 5 10 -3 6 -2 10 4 10 5 0 13 -9 16 -21 4 -11 9 -18 12 -16
3 3 0 14 -5 24 -8 13 -7 22 3 33 8 9 11 21 6 28 -5 9 -14 5 -31 -13z m20 -10
c-7 -8 -17 -15 -22 -15 -6 0 -5 7 2 15 7 8 17 15 22 15 6 0 5 -7 -2 -15z m-85
-165 c3 -5 -1 -10 -10 -10 -9 0 -13 5 -10 10 3 6 8 10 10 10 2 0 7 -4 10 -10z"/>
<path d="M9895 4460 c-2 -3 5 -7 16 -7 10 -1 19 2 19 6 0 9 -29 10 -35 1z"/>
<path d="M355 4420 c-3 -5 -2 -10 4 -10 5 0 13 5 16 10 3 6 2 10 -4 10 -5 0
-13 -4 -16 -10z"/>
<path d="M9890 4400 c0 -5 5 -10 11 -10 5 0 7 5 4 10 -3 6 -8 10 -11 10 -2 0
-4 -4 -4 -10z"/>
<path d="M395 4380 c-3 -6 1 -7 9 -4 18 7 21 14 7 14 -6 0 -13 -4 -16 -10z"/>
<path d="M393 4347 c0 -7 9 -14 20 -14 11 -1 18 -1 16 0 -2 2 -11 8 -20 15
-12 9 -16 9 -16 -1z"/>
<path d="M9837 4333 c-10 -9 -9 -23 1 -23 5 0 9 7 9 15 0 17 -1 18 -10 8z"/>
<path d="M410 4301 c0 -6 4 -13 10 -16 6 -3 7 1 4 9 -7 18 -14 21 -14 7z"/>
<path d="M475 4230 c-3 -5 -1 -10 4 -10 6 0 11 5 11 10 0 6 -2 10 -4 10 -3 0
-8 -4 -11 -10z"/>
<path d="M9737 4223 c3 -7 6 -13 8 -13 1 0 7 6 13 13 8 10 6 13 -7 13 -11 0
-17 -6 -14 -13z"/>
<path d="M9756 4187 c3 -10 9 -15 12 -12 3 3 0 11 -7 18 -10 9 -11 8 -5 -6z"/>
<path d="M510 4179 c0 -5 5 -7 10 -4 6 3 10 8 10 11 0 2 -4 4 -10 4 -5 0 -10
-5 -10 -11z"/>
<path d="M476 4162 c-3 -4 4 -9 15 -9 23 -2 25 3 4 10 -8 4 -16 3 -19 -1z"/>
<path d="M518 4132 c-3 -11 0 -19 7 -19 7 0 10 8 7 19 -2 10 -6 18 -7 18 -1 0
-5 -8 -7 -18z"/>
<path d="M9735 4131 c-3 -5 -2 -12 3 -15 5 -3 9 1 9 9 0 17 -3 19 -12 6z"/>
<path d="M554 4075 c1 -8 6 -18 11 -22 4 -4 5 -3 2 4 -4 6 -2 13 5 15 8 3 6 6
-4 10 -10 4 -15 2 -14 -7z"/>
<path d="M584 4058 c-4 -7 -4 -10 1 -6 4 4 15 2 24 -5 14 -11 14 -10 2 6 -16
20 -18 21 -27 5z"/>
<path d="M9690 4046 c0 -2 7 -7 16 -10 8 -3 12 -2 9 4 -6 10 -25 14 -25 6z"/>
<path d="M595 4020 c1 -11 5 -23 10 -27 4 -5 5 -3 1 4 -3 6 -2 14 3 18 5 3 14
-2 19 -11 5 -9 12 -12 15 -7 3 5 -7 17 -22 26 -26 15 -28 15 -26 -3z"/>
<path d="M9621 4014 c0 -11 3 -14 6 -6 3 7 2 16 -1 19 -3 4 -6 -2 -5 -13z"/>
<path d="M613 3965 c0 -8 4 -12 9 -9 5 3 6 10 3 15 -9 13 -12 11 -12 -6z"/>
<path d="M9530 3955 c-16 -20 -1 -38 20 -25 12 8 12 10 1 10 -7 0 -11 6 -7 15
7 19 2 19 -14 0z"/>
<path d="M9580 3945 c0 -7 30 -13 34 -7 3 4 -4 9 -15 9 -10 1 -19 0 -19 -2z"/>
<path d="M695 3920 c3 -5 11 -10 16 -10 6 0 7 5 4 10 -3 6 -11 10 -16 10 -6 0
-7 -4 -4 -10z"/>
<path d="M670 3916 c0 -2 8 -10 18 -17 15 -13 16 -12 3 4 -13 16 -21 21 -21
13z"/>
<path d="M9481 3877 c-19 -23 -31 -39 -26 -35 4 4 15 2 23 -5 13 -9 14 -9 8 1
-4 7 -2 12 4 12 7 0 10 7 7 15 -4 8 -2 17 3 20 4 3 10 -1 13 -7 2 -8 8 -9 13
-4 5 5 4 11 -3 13 -7 3 -13 9 -13 14 0 6 5 7 12 3 7 -4 8 -3 4 4 -9 15 -6 18
-45 -31z"/>
<path d="M9540 3899 c0 -5 5 -7 10 -4 6 3 10 8 10 11 0 2 -4 4 -10 4 -5 0 -10
-5 -10 -11z"/>
<path d="M716 3887 c3 -10 9 -15 12 -12 3 3 0 11 -7 18 -10 9 -11 8 -5 -6z"/>
<path d="M9570 3881 c0 -6 4 -13 10 -16 6 -3 7 1 4 9 -7 18 -14 21 -14 7z"/>
<path d="M741 3864 c0 -11 3 -14 6 -6 3 7 2 16 -1 19 -3 4 -6 -2 -5 -13z"/>
<path d="M751 3840 c-9 -5 -4 -7 13 -7 29 0 32 2 13 10 -8 3 -20 2 -26 -3z"/>
<path d="M735 3800 c-3 -5 -1 -10 4 -10 6 0 11 5 11 10 0 6 -2 10 -4 10 -3 0
-8 -4 -11 -10z"/>
<path d="M790 3800 c0 -5 5 -10 11 -10 5 0 7 5 4 10 -3 6 -8 10 -11 10 -2 0
-4 -4 -4 -10z"/>
<path d="M794 3760 c0 -13 4 -16 10 -10 7 7 7 13 0 20 -6 6 -10 3 -10 -10z"/>
<path d="M9433 3745 c0 -8 4 -12 9 -9 5 3 6 10 3 15 -9 13 -12 11 -12 -6z"/>
<path d="M851 3737 c2 -1 13 -9 24 -17 19 -14 19 -14 6 3 -7 9 -18 17 -24 17
-6 0 -8 -1 -6 -3z"/>
<path d="M9335 3710 c-10 -11 -21 -17 -25 -15 -9 6 -7 -21 2 -31 4 -3 4 -13 2
-22 -4 -13 -2 -12 6 2 8 12 9 21 2 25 -9 6 7 28 25 34 7 2 15 27 9 27 -2 0
-11 -9 -21 -20z"/>
<path d="M835 3709 c-4 -6 -5 -12 -2 -15 2 -3 7 2 10 11 7 17 1 20 -8 4z"/>
<path d="M9416 3707 c3 -10 9 -15 12 -12 3 3 0 11 -7 18 -10 9 -11 8 -5 -6z"/>
<path d="M855 3701 c-3 -5 -2 -12 3 -15 5 -3 9 1 9 9 0 17 -3 19 -12 6z"/>
<path d="M9352 3681 c-11 -7 -11 -9 0 -14 9 -3 15 1 15 9 0 8 -1 14 -1 14 -1
0 -7 -4 -14 -9z"/>
<path d="M9389 3663 c-13 -16 -12 -17 4 -4 16 13 21 21 13 21 -2 0 -10 -8 -17
-17z"/>
<path d="M920 3632 c9 -19 30 -23 30 -5 0 4 -3 3 -7 0 -3 -4 -12 1 -20 11 -13
15 -13 15 -3 -6z"/>
<path d="M972 3615 c6 -14 15 -25 20 -25 5 0 6 -5 2 -12 -4 -7 -3 -8 4 -4 8 5
5 16 -10 37 -27 36 -31 37 -16 4z"/>
<path d="M950 3603 c0 -6 8 -17 18 -24 16 -13 16 -13 2 6 -8 11 -16 22 -17 24
-2 2 -3 0 -3 -6z"/>
<path d="M9183 3558 c-22 -28 -23 -36 -6 -34 11 2 18 12 19 24 1 25 0 26 -13
10z"/>
<path d="M975 3540 c3 -5 8 -10 11 -10 2 0 4 5 4 10 0 6 -5 10 -11 10 -5 0 -7
-4 -4 -10z"/>
<path d="M9199 3493 c-13 -16 -12 -17 4 -4 9 7 17 15 17 17 0 8 -8 3 -21 -13z"/>
<path d="M1073 3475 c0 -8 4 -12 9 -9 5 3 6 10 3 15 -9 13 -12 11 -12 -6z"/>
<path d="M9135 3459 c-4 -6 -4 -13 -1 -16 3 -4 6 -1 6 6 0 7 5 9 10 6 6 -3 10
-1 10 4 0 14 -17 14 -25 0z"/>
<path d="M1130 3436 c0 -2 8 -10 18 -17 15 -13 16 -12 3 4 -13 16 -21 21 -21
13z"/>
<path d="M1202 3410 c7 -11 17 -20 22 -20 5 0 1 9 -9 20 -10 11 -20 20 -22 20
-2 0 2 -9 9 -20z"/>
<path d="M9045 3420 c-4 -6 -12 -7 -18 -4 -9 5 -9 4 0 -6 13 -14 -1 -55 -16
-46 -4 3 -8 -1 -8 -9 0 -15 18 -26 52 -32 11 -1 15 0 10 4 -10 7 -11 14 -6 53
1 13 3 13 10 0 6 -8 7 -18 4 -24 -3 -5 -1 -6 5 -2 13 8 1 39 -18 51 -6 4 -8
11 -5 16 4 5 4 9 1 9 -3 0 -8 -5 -11 -10z m0 -46 c-9 -14 -11 -24 -5 -24 6 0
8 -5 4 -11 -4 -7 -10 -7 -16 -1 -6 6 -4 18 6 34 9 14 13 28 9 33 -5 4 -2 5 5
1 11 -6 10 -13 -3 -32z"/>
<path d="M1174 3396 c0 -12 6 -23 13 -23 7 0 13 4 13 9 0 4 -5 8 -11 8 -5 0
-8 4 -4 9 3 5 2 12 -3 15 -4 2 -8 -6 -8 -18z"/>
<path d="M1215 3369 c-4 -6 -5 -12 -2 -15 2 -3 7 2 10 11 7 17 1 20 -8 4z"/>
<path d="M1258 3353 c6 -2 10 -8 8 -12 -3 -4 1 -8 9 -8 8 0 15 4 15 8 0 7 -26
20 -38 18 -4 0 -1 -3 6 -6z"/>
<path d="M1170 3340 c0 -5 5 -10 11 -10 5 0 7 5 4 10 -3 6 -8 10 -11 10 -2 0
-4 -4 -4 -10z"/>
<path d="M1216 3313 c-6 -14 -5 -15 5 -6 7 7 10 15 7 18 -3 3 -9 -2 -12 -12z"/>
<path d="M1310 3320 c0 -5 5 -10 11 -10 5 0 7 5 4 10 -3 6 -8 10 -11 10 -2 0
-4 -4 -4 -10z"/>
<path d="M9071 3309 c-12 -12 -20 -24 -16 -27 3 -3 12 4 21 16 8 12 20 19 26
16 7 -4 8 -2 4 4 -9 15 -8 16 -35 -9z"/>
<path d="M1255 3311 c-3 -5 -2 -12 3 -15 5 -3 9 1 9 9 0 17 -3 19 -12 6z"/>
<path d="M1291 3304 c0 -11 3 -14 6 -6 3 7 2 16 -1 19 -3 4 -6 -2 -5 -13z"/>
<path d="M1310 3280 c0 -5 5 -10 11 -10 5 0 7 5 4 10 -3 6 -8 10 -11 10 -2 0
-4 -4 -4 -10z"/>
<path d="M1374 3272 c3 -5 0 -13 -6 -15 -9 -4 -10 -6 -1 -6 17 -1 25 16 12 25
-7 4 -9 3 -5 -4z"/>
<path d="M9079 3253 c5 -10 10 -22 11 -28 1 -5 3 -12 5 -13 2 -2 2 4 0 15 -2
10 -4 24 -4 31 -1 6 -6 12 -11 12 -7 0 -7 -6 -1 -17z"/>
<path d="M1390 3240 c0 -6 4 -9 9 -5 5 3 12 -5 14 -17 5 -22 5 -21 4 1 -2 24
-27 44 -27 21z"/>
<path d="M9153 3195 c0 -8 4 -12 9 -9 5 3 6 10 3 15 -9 13 -12 11 -12 -6z"/>
<path d="M1416 3182 c-3 -4 4 -9 15 -9 23 -2 25 3 4 10 -8 4 -16 3 -19 -1z"/>
<path d="M9126 3173 c-4 -9 -2 -21 4 -27 8 -8 9 -6 4 8 -5 13 -4 17 4 12 8 -5
10 -2 6 8 -8 20 -10 20 -18 -1z"/>
<path d="M1515 3149 c-4 -6 -5 -12 -2 -15 2 -3 7 2 10 11 7 17 1 20 -8 4z"/>
<path d="M9150 3135 c0 -8 2 -15 4 -15 2 0 6 7 10 15 3 8 1 15 -4 15 -6 0 -10
-7 -10 -15z"/>
<path d="M1533 3110 c-1 -11 2 -20 7 -20 4 0 7 7 6 15 -3 23 -12 26 -13 5z"/>
<path d="M9162 3114 c-7 -8 -8 -14 -3 -14 10 0 25 19 20 25 -2 1 -10 -3 -17
-11z"/>
<path d="M9190 3100 c0 -5 5 -10 10 -10 6 0 10 5 10 10 0 6 -4 10 -10 10 -5 0
-10 -4 -10 -10z"/>
<path d="M9174 3063 c3 -15 10 -29 16 -31 5 -2 7 -9 3 -15 -3 -7 -3 -9 2 -5 4
4 13 4 19 -2 8 -6 12 -3 12 10 0 10 -4 16 -9 13 -12 -7 -36 17 -31 32 3 7 0
16 -6 20 -7 4 -9 -3 -6 -22z"/>
<path d="M1615 3040 c3 -5 8 -10 11 -10 2 0 4 5 4 10 0 6 -5 10 -11 10 -5 0
-7 -4 -4 -10z"/>
<path d="M1715 3020 c26 -11 35 -12 35 -2 0 4 -12 8 -27 9 -24 1 -25 1 -8 -7z"/>
<path d="M1837 2949 c7 -7 15 -10 18 -7 3 3 -2 9 -12 12 -14 6 -15 5 -6 -5z"/>
<path d="M9240 2955 c0 -5 5 -17 10 -25 5 -8 10 -10 10 -5 0 6 -5 17 -10 25
-5 8 -10 11 -10 5z"/>
<path d="M1806 2942 c-3 -5 1 -9 9 -9 8 0 12 4 9 9 -3 4 -7 8 -9 8 -2 0 -6 -4
-9 -8z"/>
<path d="M1885 2930 c10 -11 23 -20 28 -20 6 0 1 9 -11 20 -12 11 -24 20 -28
20 -4 0 1 -9 11 -20z"/>
<path d="M9230 2901 c0 -6 5 -13 10 -16 6 -4 7 -11 4 -17 -4 -7 -2 -8 4 -4 7
4 12 1 12 -7 0 -8 8 -21 18 -28 15 -13 16 -12 3 4 -8 10 -14 32 -14 50 0 18
-2 24 -4 14 -3 -9 -9 -15 -14 -11 -5 3 -7 10 -4 15 4 5 1 9 -4 9 -6 0 -11 -4
-11 -9z"/>
<path d="M1918 2888 c14 -14 44 -20 36 -7 -3 5 -10 7 -15 4 -5 -4 -9 -1 -9 4
0 6 -5 11 -12 11 -9 0 -9 -3 0 -12z"/>
<path d="M1969 2882 c6 -12 16 -24 22 -28 8 -4 8 -1 0 14 -6 12 -16 24 -22 28
-8 4 -8 1 0 -14z"/>
<path d="M1956 2842 c-3 -4 4 -9 15 -9 23 -2 25 3 4 10 -8 4 -16 3 -19 -1z"/>
<path d="M2030 2839 c0 -5 5 -7 10 -4 6 3 10 8 10 11 0 2 -4 4 -10 4 -5 0 -10
-5 -10 -11z"/>
<path d="M2093 2804 c0 -16 6 -17 25 -5 11 6 9 9 -5 13 -12 3 -20 0 -20 -8z"/>
<path d="M9320 2754 c-11 -12 -10 -18 5 -32 18 -16 18 -16 6 1 -11 14 -11 20
-1 32 7 8 10 15 7 15 -2 0 -10 -7 -17 -16z"/>
<path d="M2217 2740 c3 -11 7 -20 9 -20 2 0 4 9 4 20 0 11 -4 20 -9 20 -5 0
-7 -9 -4 -20z"/>
<path d="M2116 2742 c-3 -5 1 -9 9 -9 8 0 12 4 9 9 -3 4 -7 8 -9 8 -2 0 -6 -4
-9 -8z"/>
<path d="M2179 2748 c-5 -18 -6 -38 -1 -34 7 8 12 36 6 36 -2 0 -4 -1 -5 -2z"/>
<path d="M7861 2694 c-18 -15 -29 -33 -28 -44 5 -31 14 -33 13 -3 -1 20 5 31
21 38 13 5 25 15 27 22 8 19 1 16 -33 -13z"/>
<path d="M8072 2705 c4 -4 2 -15 -5 -23 -8 -11 -9 -14 0 -9 7 4 17 0 23 -10
10 -16 11 -16 6 -1 -3 10 -2 19 2 21 11 5 51 -41 43 -50 -3 -4 1 -2 11 5 14
11 17 10 23 -8 4 -12 9 -19 12 -17 2 3 -1 15 -7 27 -6 12 -14 19 -17 16 -3 -3
-13 4 -22 15 -9 11 -23 21 -31 22 -8 2 -22 7 -30 11 -8 5 -12 6 -8 1z"/>
<path d="M2377 2682 c12 -11 19 -23 15 -28 -4 -5 1 -2 12 6 16 13 20 12 36 -8
11 -13 21 -18 25 -12 7 12 25 4 25 -11 0 -6 -4 -7 -10 -4 -5 3 -10 2 -10 -3 0
-5 14 -9 30 -8 17 0 30 3 30 7 0 8 -53 33 -64 30 -5 -1 -16 5 -26 14 -9 9 -27
17 -39 20 -11 2 -27 7 -34 10 -6 4 -2 -2 10 -13z"/>
<path d="M2265 2679 c-3 -4 2 -6 10 -5 21 3 28 13 10 13 -9 0 -18 -4 -20 -8z"/>
<path d="M7796 2672 c-3 -6 -1 -14 5 -17 15 -10 25 3 12 16 -7 7 -13 7 -17 1z"/>
<path d="M7865 2669 c-4 -6 -5 -12 -2 -15 2 -3 7 2 10 11 7 17 1 20 -8 4z"/>
<path d="M7910 2669 c0 -5 5 -7 10 -4 6 3 10 8 10 11 0 2 -4 4 -10 4 -5 0 -10
-5 -10 -11z"/>
<path d="M9320 2671 c0 -6 4 -13 10 -16 6 -3 7 1 4 9 -7 18 -14 21 -14 7z"/>
<path d="M7999 2653 c-13 -16 -12 -17 4 -4 9 7 17 15 17 17 0 8 -8 3 -21 -13z"/>
<path d="M2410 2639 c0 -5 5 -7 10 -4 6 3 10 8 10 11 0 2 -4 4 -10 4 -5 0 -10
-5 -10 -11z"/>
<path d="M8110 2643 c0 -6 8 -17 18 -24 16 -13 16 -13 2 6 -8 11 -16 22 -17
24 -2 2 -3 0 -3 -6z"/>
<path d="M9305 2641 c-2 -5 3 -15 12 -22 9 -8 14 -9 10 -2 -4 6 -2 13 5 15 8
3 6 7 -5 11 -9 3 -19 2 -22 -2z"/>
<path d="M7750 2630 c0 -5 5 -10 11 -10 5 0 7 5 4 10 -3 6 -8 10 -11 10 -2 0
-4 -4 -4 -10z"/>
<path d="M9376 2618 c3 -5 10 -6 15 -3 13 9 11 12 -6 12 -8 0 -12 -4 -9 -9z"/>
<path d="M2587 2593 c4 -10 2 -14 -4 -10 -5 3 -10 0 -10 -7 0 -17 23 -10 31 9
2 7 -1 16 -9 19 -10 3 -12 0 -8 -11z"/>
<path d="M8160 2600 c8 -5 20 -10 25 -10 6 0 3 5 -5 10 -8 5 -19 10 -25 10 -5
0 -3 -5 5 -10z"/>
<path d="M8270 2589 c0 -5 -4 -8 -8 -5 -4 2 -9 -4 -9 -15 -2 -19 -1 -19 16 2
l18 22 16 -23 c9 -13 14 -27 11 -32 -3 -4 0 -8 5 -8 6 0 11 5 11 11 0 6 7 8
16 5 9 -3 12 -2 9 5 -4 5 -12 8 -18 6 -7 -2 -20 7 -30 20 -19 24 -37 30 -37
12z"/>
<path d="M7541 2567 c-6 -8 -7 -18 -3 -22 4 -5 -2 -5 -13 -1 -15 5 -17 4 -8
-5 13 -13 37 -3 28 12 -4 5 -2 9 4 9 5 0 11 -6 14 -12 3 -7 4 -3 4 10 -1 25
-10 28 -26 9z"/>
<path d="M8276 2562 c-3 -5 1 -9 9 -9 8 0 12 4 9 9 -3 4 -7 8 -9 8 -2 0 -6 -4
-9 -8z"/>
<path d="M2720 2550 c8 -5 10 -10 4 -10 -7 0 -15 -8 -18 -17 -6 -15 -5 -15 13
1 21 19 20 36 -2 36 -7 0 -6 -4 3 -10z"/>
<path d="M7484 2542 c4 -7 2 -20 -5 -28 -9 -10 -9 -18 -2 -25 8 -8 11 -6 10 7
-1 11 4 18 11 17 17 -4 15 12 -5 28 -12 10 -15 11 -9 1z"/>
<path d="M7695 2540 c-3 -5 -1 -10 4 -10 6 0 11 5 11 10 0 6 -2 10 -4 10 -3 0
-8 -4 -11 -10z"/>
<path d="M9356 2541 c-3 -5 1 -14 8 -20 10 -9 16 -9 21 -1 4 6 1 9 -7 8 -7 -2
-12 3 -10 10 2 14 -4 16 -12 3z"/>
<path d="M7605 2520 c-3 -6 1 -7 9 -4 18 7 21 14 7 14 -6 0 -13 -4 -16 -10z"/>
<path d="M2777 2507 c-3 -8 1 -14 8 -14 7 0 11 6 8 14 -3 7 -6 13 -8 13 -2 0
-5 -6 -8 -13z"/>
<path d="M2820 2504 c-11 -12 -11 -15 1 -12 8 2 13 -3 12 -9 -4 -19 14 -16 21
3 12 32 -12 45 -34 18z m30 -4 c0 -5 -2 -10 -4 -10 -3 0 -8 5 -11 10 -3 6 -1
10 4 10 6 0 11 -4 11 -10z"/>
<path d="M8397 2495 c-8 -8 -18 -11 -22 -7 -5 4 -5 1 -1 -6 6 -11 12 -10 27 4
10 9 19 19 19 21 0 7 -9 2 -23 -12z"/>
<path d="M9351 2495 c0 -5 3 -16 8 -23 7 -11 9 -10 14 3 4 9 3 14 -2 10 -5 -3
-12 1 -14 7 -3 7 -6 9 -6 3z"/>
<path d="M2920 2461 c-7 -14 -7 -22 2 -27 6 -4 8 -3 5 2 -3 6 -2 16 3 24 7 11
11 11 23 1 12 -9 17 -9 23 0 4 7 3 9 -4 5 -6 -3 -13 -2 -17 4 -10 16 -23 12
-35 -9z"/>
<path d="M7515 2471 c-3 -5 -2 -12 3 -15 5 -3 9 1 9 9 0 17 -3 19 -12 6z"/>
<path d="M8446 2467 c3 -10 9 -15 12 -12 3 3 0 11 -7 18 -10 9 -11 8 -5 -6z"/>
<path d="M9336 2467 c3 -10 9 -15 12 -12 3 3 0 11 -7 18 -10 9 -11 8 -5 -6z"/>
<path d="M2876 2462 c-3 -5 1 -9 9 -9 8 0 12 4 9 9 -3 4 -7 8 -9 8 -2 0 -6 -4
-9 -8z"/>
<path d="M2982 2450 c-7 -12 -8 -20 -2 -20 5 0 10 6 10 13 0 8 4 7 10 -3 5 -8
10 -10 10 -5 0 6 -4 15 -8 22 -6 9 -11 7 -20 -7z"/>
<path d="M7230 2459 c0 -5 -4 -8 -9 -4 -5 3 -12 1 -16 -5 -4 -6 -11 -7 -17 -4
-6 4 -8 2 -4 -4 3 -6 2 -13 -4 -17 -5 -3 -10 -1 -10 5 0 18 -23 6 -26 -14 -2
-11 1 -14 9 -8 17 12 42 8 40 -6 -2 -7 2 -12 7 -12 13 0 13 17 0 25 -8 5 -7
12 1 22 11 13 14 13 26 -3 8 -10 13 -13 13 -5 0 7 5 9 13 5 9 -6 9 -5 0 8 -7
8 -10 18 -6 21 3 4 1 7 -5 7 -7 0 -12 -5 -12 -11z"/>
<path d="M3023 2440 c-1 -11 2 -22 8 -25 5 -4 6 2 2 11 -4 11 -3 15 5 10 6 -3
14 -1 18 6 4 7 4 10 -1 6 -4 -4 -13 -4 -19 2 -8 6 -12 3 -13 -10z"/>
<path d="M7295 2439 c-4 -6 -5 -12 -2 -15 2 -3 7 2 10 11 7 17 1 20 -8 4z"/>
<path d="M9361 2441 c-22 -14 -24 -51 -3 -51 13 0 14 2 4 9 -19 11 -15 24 11
38 12 7 18 12 12 12 -5 1 -16 -3 -24 -8z"/>
<path d="M7106 2413 c2 -6 -4 -14 -13 -17 -11 -4 -14 -2 -9 9 8 22 -2 18 -15
-6 -8 -15 -8 -19 0 -15 6 4 11 2 11 -4 0 -7 7 -5 16 4 8 9 20 16 25 16 5 0 9
8 9 18 0 13 -2 14 -9 3 -5 -7 -11 -9 -13 -5 -3 5 -3 4 -2 -3z"/>
<path d="M8520 2420 c-9 -6 -10 -10 -3 -10 6 0 15 5 18 10 8 12 4 12 -15 0z"/>
<path d="M9375 2421 c-3 -5 -2 -12 3 -15 5 -3 9 1 9 9 0 17 -3 19 -12 6z"/>
<path d="M7253 2405 c0 -8 4 -12 9 -9 5 3 6 10 3 15 -9 13 -12 11 -12 -6z"/>
<path d="M3075 2400 c-3 -5 -1 -10 4 -10 6 0 11 5 11 10 0 6 -2 10 -4 10 -3 0
-8 -4 -11 -10z"/>
<path d="M8535 2400 c-8 -13 5 -13 25 0 13 8 13 10 -2 10 -9 0 -20 -4 -23 -10z"/>
<path d="M3106 2382 c-2 -4 4 -8 14 -8 10 0 16 4 14 8 -3 4 -9 8 -14 8 -5 0
-11 -4 -14 -8z"/>
<path d="M7020 2370 c-8 -5 -10 -10 -5 -10 6 0 17 5 25 10 8 5 11 10 5 10 -5
0 -17 -5 -25 -10z"/>
<path d="M9355 2370 c3 -5 8 -10 11 -10 2 0 4 5 4 10 0 6 -5 10 -11 10 -5 0
-7 -4 -4 -10z"/>
<path d="M9415 2369 c-4 -6 -5 -12 -2 -15 2 -3 7 2 10 11 7 17 1 20 -8 4z"/>
<path d="M3319 2353 c-13 -16 -12 -17 4 -4 16 13 21 21 13 21 -2 0 -10 -8 -17
-17z"/>
<path d="M3254 2349 c1 -7 10 -13 19 -15 9 -1 15 2 11 7 -3 5 -9 7 -14 4 -4
-3 -11 0 -13 5 -3 6 -4 5 -3 -1z"/>
<path d="M3200 2340 c-9 -6 -10 -10 -3 -10 6 0 15 5 18 10 8 12 4 12 -15 0z"/>
<path d="M6986 2341 c-3 -4 4 -7 14 -6 27 2 33 10 10 12 -11 1 -22 -2 -24 -6z"/>
<path d="M8566 2338 c3 -5 10 -6 15 -3 13 9 11 12 -6 12 -8 0 -12 -4 -9 -9z"/>
<path d="M8625 2323 c-5 -15 -4 -16 6 -5 16 15 33 16 23 0 -4 -7 -3 -8 5 -4 6
4 9 12 6 17 -10 15 -32 10 -40 -8z"/>
<path d="M9390 2310 c13 -24 17 -25 17 -5 0 8 -6 16 -14 19 -11 4 -11 1 -3
-14z"/>
<path d="M3316 2298 c3 -5 10 -6 15 -3 13 9 11 12 -6 12 -8 0 -12 -4 -9 -9z"/>
<path d="M3576 2301 c-3 -5 1 -11 9 -14 9 -4 12 -1 8 9 -6 16 -10 17 -17 5z"/>
<path d="M6796 2295 c-9 -26 -7 -32 5 -12 6 10 9 21 6 23 -2 3 -7 -2 -11 -11z"/>
<path d="M6870 2306 c0 -2 7 -7 16 -10 8 -3 12 -2 9 4 -6 10 -25 14 -25 6z"/>
<path d="M8660 2300 c-9 -6 -10 -10 -3 -10 6 0 15 5 18 10 8 12 4 12 -15 0z"/>
<path d="M3426 2282 c-3 -5 1 -9 9 -9 8 0 12 4 9 9 -3 4 -7 8 -9 8 -2 0 -6 -4
-9 -8z"/>
<path d="M3460 2285 c0 -7 30 -13 34 -7 3 4 -4 9 -15 9 -10 1 -19 0 -19 -2z"/>
<path d="M3553 2278 c1 -7 -4 -12 -11 -10 -8 1 -11 -2 -7 -8 5 -8 11 -8 21 1
7 6 11 15 8 20 -8 13 -14 11 -11 -3z"/>
<path d="M3653 2276 c-10 -6 -19 -18 -21 -26 -2 -9 5 -6 19 9 l22 23 13 -23
12 -24 -1 26 c-2 28 -15 32 -44 15z"/>
<path d="M6522 2270 c-7 -12 -5 -16 9 -17 11 -1 19 5 19 13 0 8 4 13 9 9 5 -3
12 -2 15 3 2 4 -6 8 -18 8 -13 0 -28 -7 -34 -16z"/>
<path d="M6755 2269 c-4 -6 -5 -12 -2 -15 2 -3 7 2 10 11 7 17 1 20 -8 4z"/>
<path d="M3786 2258 c3 -4 9 -8 15 -8 5 0 9 4 9 8 0 5 -7 9 -15 9 -8 0 -12 -4
-9 -9z"/>
<path d="M8736 2261 c-3 -5 1 -12 10 -15 22 -8 25 -4 9 11 -8 7 -16 9 -19 4z"/>
<path d="M9390 2256 c0 -8 4 -18 10 -21 6 -4 7 1 3 11 -5 13 -3 15 7 9 9 -5
11 -4 6 3 -10 17 -26 15 -26 -2z"/>
<path d="M3771 2243 c7 -12 15 -20 18 -17 3 2 -3 12 -13 22 -17 16 -18 16 -5
-5z"/>
<path d="M6334 2248 c-3 -5 -10 -5 -16 -2 -7 4 -8 2 -4 -5 6 -9 11 -9 24 1 14
11 15 10 8 -7 -4 -11 -4 -16 0 -12 4 4 14 1 23 -6 14 -10 14 -10 3 5 -8 9 -11
21 -8 26 3 5 -2 9 -10 9 -8 0 -17 -4 -20 -9z"/>
<path d="M6556 2233 c-6 -14 -5 -15 5 -6 7 7 10 15 7 18 -3 3 -9 -2 -12 -12z"/>
<path d="M9369 2248 c-7 -25 -5 -36 7 -31 10 4 12 0 8 -11 -3 -9 -11 -13 -18
-9 -6 4 -6 0 2 -9 9 -12 10 -18 2 -23 -8 -5 -8 -11 -1 -19 6 -7 9 -15 6 -18
-3 -2 1 -5 9 -5 8 0 12 6 9 14 -3 7 -9 13 -15 13 -5 0 -7 4 -3 10 3 5 13 7 23
4 16 -5 16 -5 0 6 -19 11 -13 44 6 34 6 -3 1 3 -11 14 -12 11 -19 22 -16 26 4
3 3 6 0 6 -4 0 -7 -1 -8 -2z"/>
<path d="M3812 2216 c1 -14 5 -23 9 -20 7 4 0 44 -7 44 -2 0 -3 -11 -2 -24z"/>
<path d="M3736 2218 c3 -4 11 -5 19 -1 21 7 19 12 -4 10 -11 0 -18 -5 -15 -9z"/>
<path d="M4024 2211 c7 -9 11 -23 8 -31 -6 -20 2 -11 17 17 10 20 9 22 -5 16
-11 -4 -15 -2 -11 4 3 5 0 10 -8 10 -13 0 -13 -3 -1 -16z"/>
<path d="M6074 2208 c-3 -5 -10 -6 -15 -3 -12 8 -11 -6 1 -25 8 -13 10 -12 10
3 0 10 4 16 9 12 5 -3 12 -1 16 5 4 6 10 8 15 5 5 -3 11 -2 14 3 2 4 -7 8 -20
8 -14 0 -28 -4 -30 -8z"/>
<path d="M3990 2202 c0 -5 7 -9 15 -9 8 0 12 4 9 9 -3 4 -9 8 -15 8 -5 0 -9
-4 -9 -8z"/>
<path d="M6005 2200 c-6 -10 13 -35 21 -27 14 14 12 34 -3 34 -7 0 -16 -3 -18
-7z"/>
<path d="M6340 2200 c-9 -6 -10 -10 -3 -10 6 0 15 5 18 10 8 12 4 12 -15 0z"/>
<path d="M8775 2200 c-7 -12 19 -24 37 -17 7 3 3 6 -10 6 -13 1 -20 5 -17 11
3 6 4 10 1 10 -3 0 -8 -5 -11 -10z"/>
<path d="M4236 2191 c-3 -4 -17 -7 -31 -6 -30 4 -30 2 -8 -16 14 -12 15 -12 9
0 -7 10 -3 12 13 6 13 -4 21 -2 21 5 0 6 5 8 12 4 7 -4 8 -3 4 4 -9 14 -13 15
-20 3z"/>
<path d="M5860 2181 c-12 -24 -13 -34 -1 -27 9 6 22 46 15 46 -2 0 -8 -9 -14
-19z"/>
<path d="M6273 2185 c0 -8 4 -15 9 -15 4 0 8 4 8 9 0 6 -4 12 -8 15 -5 3 -9
-1 -9 -9z"/>
<path d="M4060 2179 c0 -5 5 -7 10 -4 6 3 10 8 10 11 0 2 -4 4 -10 4 -5 0 -10
-5 -10 -11z"/>
<path d="M6096 2182 c-3 -5 1 -9 9 -9 8 0 15 4 15 9 0 4 -4 8 -9 8 -6 0 -12
-4 -15 -8z"/>
<path d="M4113 2165 c0 -8 4 -12 9 -9 5 3 6 10 3 15 -9 13 -12 11 -12 -6z"/>
<path d="M4575 2170 c-3 -6 -10 -8 -14 -6 -4 3 -7 -3 -8 -13 -1 -10 4 -18 12
-18 7 0 11 6 9 12 -3 6 2 12 11 12 11 0 15 -6 12 -19 -3 -10 -1 -21 4 -24 5
-3 9 -2 8 3 -1 4 -1 16 0 27 1 15 4 16 15 7 10 -9 16 -9 21 -1 4 6 4 14 1 17
-3 4 -6 1 -6 -7 0 -10 -3 -10 -15 0 -8 7 -15 9 -15 5 0 -4 -6 -2 -14 4 -10 8
-16 9 -21 1z"/>
<path d="M8843 2173 c4 -3 -1 -16 -10 -27 -18 -21 -18 -21 4 -2 20 16 23 36 6
36 -4 0 -3 -3 0 -7z"/>
<path d="M4250 2160 c0 -5 5 -10 11 -10 5 0 7 5 4 10 -3 6 -8 10 -11 10 -2 0
-4 -4 -4 -10z"/>
<path d="M4662 2150 c-9 -14 -9 -21 0 -26 6 -4 8 -3 4 4 -3 6 1 15 10 20 9 5
12 12 7 15 -5 3 -14 -3 -21 -13z"/>
<path d="M4757 2148 c-15 -11 -27 -25 -27 -31 0 -6 7 -2 16 9 14 17 15 17 10
1 -3 -11 -2 -16 4 -12 6 3 10 14 10 23 0 14 2 15 9 2 6 -8 7 -19 4 -25 -4 -5
3 -1 15 9 26 22 30 35 5 15 -15 -12 -16 -12 -10 3 9 26 -5 29 -36 6z"/>
<path d="M5959 2168 c-6 -21 -5 -37 2 -32 5 3 6 10 3 16 -5 8 -1 9 10 5 10 -4
15 -3 11 3 -5 9 -24 14 -26 8z"/>
<path d="M6047 2159 c7 -7 15 -10 18 -7 3 3 -2 9 -12 12 -14 6 -15 5 -6 -5z"/>
<path d="M6135 2160 c3 -5 8 -10 11 -10 2 0 4 5 4 10 0 6 -5 10 -11 10 -5 0
-7 -4 -4 -10z"/>
<path d="M6186 2158 c3 -5 10 -6 15 -3 13 9 11 12 -6 12 -8 0 -12 -4 -9 -9z"/>
<path d="M8810 2159 c0 -5 5 -7 10 -4 6 3 10 8 10 11 0 2 -4 4 -10 4 -5 0 -10
-5 -10 -11z"/>
<path d="M4825 2129 c-9 -17 -14 -33 -12 -36 3 -2 8 5 12 16 3 12 13 21 21 21
16 0 19 16 4 25 -5 3 -16 -8 -25 -26z"/>
<path d="M4876 2148 c3 -5 10 -6 15 -3 5 4 9 2 9 -3 0 -19 33 -23 49 -7 9 9
12 15 6 14 -5 -1 -12 0 -15 1 -14 7 -68 5 -64 -2z m59 -8 c3 -5 2 -10 -4 -10
-5 0 -13 5 -16 10 -3 6 -2 10 4 10 5 0 13 -4 16 -10z"/>
<path d="M4995 2151 c-3 -6 -11 -9 -16 -6 -5 4 -9 2 -9 -3 0 -15 25 -21 41
-11 10 6 11 11 3 19 -9 9 -14 9 -19 1z"/>
<path d="M5227 2153 c-3 -5 -2 -15 4 -23 5 -10 9 -11 9 -3 0 7 7 10 15 7 8 -4
13 -9 10 -13 -2 -4 2 -8 10 -8 18 0 20 14 3 20 -7 2 -10 8 -6 12 9 10 50 -24
43 -36 -3 -4 -2 -10 3 -13 18 -11 8 30 -11 47 -23 20 -33 21 -42 7 -5 -8 -11
-8 -20 0 -7 6 -16 7 -18 3z"/>
<path d="M4190 2146 c0 -2 7 -7 16 -10 8 -3 12 -2 9 4 -6 10 -25 14 -25 6z"/>
<path d="M4346 2142 c-3 -5 1 -9 9 -9 8 0 12 4 9 9 -3 4 -7 8 -9 8 -2 0 -6 -4
-9 -8z"/>
<path d="M5033 2131 c0 -11 6 -19 11 -18 6 1 10 -3 11 -10 0 -6 5 -15 10 -20
6 -4 7 -4 3 1 -4 5 0 15 10 23 9 8 11 12 4 8 -15 -8 -44 13 -36 26 3 5 1 9 -5
9 -5 0 -9 -9 -8 -19z"/>
<path d="M5060 2140 c0 -5 5 -10 11 -10 5 0 7 5 4 10 -3 6 -8 10 -11 10 -2 0
-4 -4 -4 -10z"/>
<path d="M5090 2140 c0 -3 10 -11 23 -19 20 -13 21 -13 9 1 -10 13 -10 17 0
21 7 3 3 4 -9 4 -13 -1 -23 -4 -23 -7z"/>
<path d="M5740 2146 c0 -2 7 -7 16 -10 8 -3 12 -2 9 4 -6 10 -25 14 -25 6z"/>
<path d="M5790 2139 c0 -5 5 -7 10 -4 6 3 10 8 10 11 0 2 -4 4 -10 4 -5 0 -10
-5 -10 -11z"/>
<path d="M6016 2138 c3 -5 10 -6 15 -3 13 9 11 12 -6 12 -8 0 -12 -4 -9 -9z"/>
<path d="M4680 2131 c0 -6 4 -13 10 -16 6 -3 7 1 4 9 -7 18 -14 21 -14 7z"/>
<path d="M4627 2119 c7 -7 15 -10 18 -7 3 3 -2 9 -12 12 -14 6 -15 5 -6 -5z"/>
<path d="M4870 2120 c0 -5 5 -10 10 -10 6 0 10 5 10 10 0 6 -4 10 -10 10 -5 0
-10 -4 -10 -10z"/>
<path d="M5470 2120 c0 -5 5 -10 11 -10 5 0 7 5 4 10 -3 6 -8 10 -11 10 -2 0
-4 -4 -4 -10z"/>
<path d="M8853 2115 c0 -8 4 -12 9 -9 5 3 6 10 3 15 -9 13 -12 11 -12 -6z"/>
<path d="M4950 2116 c0 -2 7 -9 15 -16 13 -11 14 -10 9 4 -5 14 -24 23 -24 12z"/>
<path d="M5513 2105 c0 -8 4 -12 9 -9 5 3 6 10 3 15 -9 13 -12 11 -12 -6z"/>
<path d="M4346 2098 c3 -5 10 -6 15 -3 13 9 11 12 -6 12 -8 0 -12 -4 -9 -9z"/>
<path d="M5096 2093 c-6 -14 -5 -15 5 -6 7 7 10 15 7 18 -3 3 -9 -2 -12 -12z"/>
<path d="M9415 2080 c3 -5 8 -10 11 -10 2 0 4 5 4 10 0 6 -5 10 -11 10 -5 0
-7 -4 -4 -10z"/>
<path d="M8936 2054 c-9 -24 -2 -26 12 -4 7 11 8 20 3 20 -5 0 -12 -7 -15 -16z"/>
<path d="M8956 2042 c-2 -4 4 -9 15 -9 11 -1 17 2 14 8 -7 11 -22 12 -29 1z"/>
<path d="M9410 2016 c0 -8 4 -17 9 -20 5 -4 7 3 4 14 -6 23 -13 26 -13 6z"/>
<path d="M8997 1975 c-4 -8 -3 -16 1 -19 4 -3 9 4 9 15 2 23 -3 25 -10 4z"/>
<path d="M9400 1976 c0 -9 -4 -15 -8 -12 -4 2 -8 -6 -8 -19 0 -21 9 -26 12 -7
0 4 4 15 9 25 4 10 5 21 1 24 -3 4 -6 -1 -6 -11z"/>
<path d="M9020 1956 c0 -2 11 -6 25 -8 13 -3 22 -1 19 3 -5 9 -44 13 -44 5z"/>
<path d="M9410 1940 c0 -5 5 -10 10 -10 6 0 10 5 10 10 0 6 -4 10 -10 10 -5 0
-10 -4 -10 -10z"/>
<path d="M9037 1929 c7 -7 15 -10 18 -7 3 3 -2 9 -12 12 -14 6 -15 5 -6 -5z"/>
<path d="M9112 1856 c7 -8 15 -12 17 -11 5 6 -10 25 -20 25 -5 0 -4 -6 3 -14z"/>
<path d="M9390 1840 c0 -6 7 -10 15 -10 8 0 15 2 15 4 0 2 -7 6 -15 10 -8 3
-15 1 -15 -4z"/>
<path d="M9412 1798 c-15 -15 -15 -28 -1 -28 5 0 7 5 4 10 -3 6 4 14 17 19 14
6 17 10 8 10 -9 1 -21 -4 -28 -11z"/>
<path d="M9176 1739 c3 -5 10 -6 16 -3 8 5 9 1 5 -10 -4 -11 -3 -15 4 -11 14
10 6 28 -14 31 -9 1 -15 -2 -11 -7z"/>
<path d="M9433 1715 c0 -8 4 -12 9 -9 5 3 6 10 3 15 -9 13 -12 11 -12 -6z"/>
<path d="M9206 1702 c-3 -5 1 -9 9 -9 8 0 15 4 15 9 0 4 -4 8 -9 8 -6 0 -12
-4 -15 -8z"/>
<path d="M9387 1679 c7 -7 15 -10 18 -7 3 3 -2 9 -12 12 -14 6 -15 5 -6 -5z"/>
<path d="M9234 1665 c3 -23 12 -26 13 -5 1 11 -2 20 -7 20 -4 0 -7 -7 -6 -15z"/>
<path d="M9260 1660 c0 -5 5 -10 11 -10 5 0 7 5 4 10 -3 6 -8 10 -11 10 -2 0
-4 -4 -4 -10z"/>
<path d="M9419 1613 c-13 -17 -13 -17 6 -3 11 8 22 16 24 17 2 2 0 3 -6 3 -6
0 -17 -8 -24 -17z"/>
<path d="M9415 1580 c-3 -5 -1 -10 4 -10 6 0 11 5 11 10 0 6 -2 10 -4 10 -3 0
-8 -4 -11 -10z"/>
<path d="M9295 1560 c3 -5 8 -10 11 -10 2 0 4 5 4 10 0 6 -5 10 -11 10 -5 0
-7 -4 -4 -10z"/>
</g>
</svg>
