<svg xmlns="http://www.w3.org/2000/svg" width="3840" height="3840"><path d="M1855,2085L1638,2537L1985,2344Z" fill="#788496" stroke="#788496" stroke-width="1.51"/><path d="M1638,2537L1787,2729L1985,2344Z" fill="#7f8999" stroke="#7f8999" stroke-width="1.51"/><path d="M1048,2116L1251,2535L1638,2537Z" fill="#8b8c91" stroke="#8b8c91" stroke-width="1.51"/><path d="M1638,2537L1340,2902L1787,2729Z" fill="#8b909b" stroke="#8b909b" stroke-width="1.51"/><path d="M1855,2085L1048,2116L1638,2537Z" fill="#818690" stroke="#818690" stroke-width="1.51"/><path d="M1787,2729L2343,2519L1985,2344Z" fill="#7e8a9d" stroke="#7e8a9d" stroke-width="1.51"/><path d="M1985,2344L2322,1830L1855,2085Z" fill="#738195" stroke="#738195" stroke-width="1.51"/><path d="M1855,2085L1649,1657L1564,1774Z" fill="#767e8b" stroke="#767e8b" stroke-width="1.51"/><path d="M1985,1597L1649,1657L1855,2085Z" fill="#737c8d" stroke="#737c8d" stroke-width="1.51"/><path d="M866,1597L1048,2116L1564,1774Z" fill="#868484" stroke="#868484" stroke-width="1.51"/><path d="M1564,1774L1048,2116L1855,2085Z" fill="#7b818b" stroke="#7b818b" stroke-width="1.51"/><path d="M1251,2535L1340,2902L1638,2537Z" fill="#8e9197" stroke="#8e9197" stroke-width="1.51"/><path d="M2369,3061L2539,2611L2343,2519Z" fill="#8d98a8" stroke="#8d98a8" stroke-width="1.51"/><path d="M1065,2912L1340,2902L1251,2535Z" fill="#979797" stroke="#979797" stroke-width="1.51"/><path d="M2322,1830L1985,1597L1855,2085Z" fill="#727e90" stroke="#727e90" stroke-width="1.51"/><path d="M2343,2519L2322,1830L1985,2344Z" fill="#7b879b" stroke="#7b879b" stroke-width="1.51"/><path d="M2343,2519L2741,2420L2322,1830Z" fill="#818ea0" stroke="#818ea0" stroke-width="1.51"/><path d="M2369,3061L2343,2519L1787,2729Z" fill="#8793a4" stroke="#8793a4" stroke-width="1.51"/><path d="M582,2776L1065,2912L1251,2535Z" fill="#9e9992" stroke="#9e9992" stroke-width="1.51"/><path d="M1048,2116L809,2209L1251,2535Z" fill="#908d8b" stroke="#908d8b" stroke-width="1.51"/><path d="M866,1597L809,2209L1048,2116Z" fill="#8c8883" stroke="#8c8883" stroke-width="1.51"/><path d="M1383,3348L1787,2729L1340,2902Z" fill="#94989f" stroke="#94989f" stroke-width="1.51"/><path d="M1383,3348L2089,3188L1787,2729Z" fill="#8f97a4" stroke="#8f97a4" stroke-width="1.51"/><path d="M2089,3188L2369,3061L1787,2729Z" fill="#8b96a7" stroke="#8b96a7" stroke-width="1.51"/><path d="M1985,1597L1664,1273L1649,1657Z" fill="#7d8188" stroke="#7d8188" stroke-width="1.51"/><path d="M2322,1830L2271,1467L1985,1597Z" fill="#7c8391" stroke="#7c8391" stroke-width="1.51"/><path d="M2619,1665L2271,1467L2322,1830Z" fill="#808895" stroke="#808895" stroke-width="1.51"/><path d="M2539,2611L2741,2420L2343,2519Z" fill="#8a95a6" stroke="#8a95a6" stroke-width="1.51"/><path d="M2916,2704L2741,2420L2539,2611Z" fill="#919bac" stroke="#919bac" stroke-width="1.51"/><path d="M1848,1029L1664,1273L1985,1597Z" fill="#828286" stroke="#828286" stroke-width="1.51"/><path d="M1240,1164L866,1597L1564,1774Z" fill="#8d8781" stroke="#8d8781" stroke-width="1.51"/><path d="M1065,2912L1065,3144L1340,2902Z" fill="#9f9c9a" stroke="#9f9c9a" stroke-width="1.51"/><path d="M849,2997L1065,3144L1065,2912Z" fill="#a49f98" stroke="#a49f98" stroke-width="1.51"/><path d="M2833,2088L2619,1665L2322,1830Z" fill="#7e8a9b" stroke="#7e8a9b" stroke-width="1.51"/><path d="M1065,3144L1383,3348L1340,2902Z" fill="#9f9e9e" stroke="#9f9e9e" stroke-width="1.51"/><path d="M2741,2420L2833,2088L2322,1830Z" fill="#828fa0" stroke="#828fa0" stroke-width="1.51"/><path d="M1240,1164L1564,1774L1649,1657Z" fill="#858485" stroke="#858485" stroke-width="1.51"/><path d="M582,2776L849,2997L1065,2912Z" fill="#a59e93" stroke="#a59e93" stroke-width="1.51"/><path d="M2271,1467L2223,1167L1985,1597Z" fill="#82868d" stroke="#82868d" stroke-width="1.51"/><path d="M2619,1665L2223,1167L2271,1467Z" fill="#868a92" stroke="#868a92" stroke-width="1.51"/><path d="M2657,3151L2916,2704L2539,2611Z" fill="#97a1b0" stroke="#97a1b0" stroke-width="1.51"/><path d="M3269,2330L3039,2036L2833,2088Z" fill="#8e99aa" stroke="#8e99aa" stroke-width="1.51"/><path d="M1664,1273L1240,1164L1649,1657Z" fill="#898683" stroke="#898683" stroke-width="1.51"/><path d="M1395,782L1240,1164L1664,1273Z" fill="#938a7e" stroke="#938a7e" stroke-width="1.51"/><path d="M809,2209L582,2776L1251,2535Z" fill="#9a948d" stroke="#9a948d" stroke-width="1.51"/><path d="M390,2683L582,2776L809,2209Z" fill="#a3998a" stroke="#a3998a" stroke-width="1.51"/><path d="M2369,3061L2657,3151L2539,2611Z" fill="#959faf" stroke="#959faf" stroke-width="1.51"/><path d="M2227,3692L2657,3151L2369,3061Z" fill="#9ca6b4" stroke="#9ca6b4" stroke-width="1.51"/><path d="M2227,3692L2369,3061L2089,3188Z" fill="#97a1b0" stroke="#97a1b0" stroke-width="1.51"/><path d="M1383,3348L1832,3574L2089,3188Z" fill="#959da9" stroke="#959da9" stroke-width="1.51"/><path d="M2223,1167L1848,1029L1985,1597Z" fill="#838489" stroke="#838489" stroke-width="1.51"/><path d="M1383,3348L1364,3596L1832,3574Z" fill="#a1a4a9" stroke="#a1a4a9" stroke-width="1.51"/><path d="M1065,3144L1262,3527L1383,3348Z" fill="#a5a4a2" stroke="#a5a4a2" stroke-width="1.51"/><path d="M579,3622L1262,3527L1065,3144Z" fill="#afa9a0" stroke="#afa9a0" stroke-width="1.51"/><path d="M579,3622L1065,3144L849,2997Z" fill="#afa79b" stroke="#afa79b" stroke-width="1.51"/><path d="M2619,1665L2945,987L2223,1167Z" fill="#919194" stroke="#919194" stroke-width="1.51"/><path d="M2833,2088L3039,2036L2619,1665Z" fill="#828fa1" stroke="#828fa1" stroke-width="1.51"/><path d="M3269,2330L2833,2088L2741,2420Z" fill="#8e9aaa" stroke="#8e9aaa" stroke-width="1.51"/><path d="M866,1597L523,1744L809,2209Z" fill="#918a7f" stroke="#918a7f" stroke-width="1.51"/><path d="M408,1256L553,1694L866,1597Z" fill="#9e9079" stroke="#9e9079" stroke-width="1.51"/><path d="M553,1694L523,1744L866,1597Z" fill="#998d7c" stroke="#998d7c" stroke-width="1.51"/><path d="M1262,3527L1364,3596L1383,3348Z" fill="#a7a6a6" stroke="#a7a6a6" stroke-width="1.51"/><path d="M391,3592L579,3622L849,2997Z" fill="#b9ae9b" stroke="#b9ae9b" stroke-width="1.51"/><path d="M30,2156L390,2683L809,2209Z" fill="#a39784" stroke="#a39784" stroke-width="1.51"/><path d="M2916,2704L3113,2696L2741,2420Z" fill="#96a0b0" stroke="#96a0b0" stroke-width="1.51"/><path d="M3154,3117L3113,2696L2916,2704Z" fill="#a1a9b7" stroke="#a1a9b7" stroke-width="1.51"/><path d="M2657,3151L3154,3117L2916,2704Z" fill="#a0aab7" stroke="#a0aab7" stroke-width="1.51"/><path d="M1832,3574L2227,3692L2089,3188Z" fill="#97a1b0" stroke="#97a1b0" stroke-width="1.51"/><path d="M2335,3951L2227,3692L2090,4215Z" fill="#a8b0bd" stroke="#a8b0bd" stroke-width="1.51"/><path d="M3039,2036L3071,1584L2619,1665Z" fill="#8a93a0" stroke="#8a93a0" stroke-width="1.51"/><path d="M3421,1716L3071,1584L3039,2036Z" fill="#9099a6" stroke="#9099a6" stroke-width="1.51"/><path d="M3113,2696L3269,2330L2741,2420Z" fill="#96a1b0" stroke="#96a1b0" stroke-width="1.51"/><path d="M1240,1164L836,1017L866,1597Z" fill="#9b8e7b" stroke="#9b8e7b" stroke-width="1.51"/><path d="M1848,1029L1395,782L1664,1273Z" fill="#8f8980" stroke="#8f8980" stroke-width="1.51"/><path d="M1710,729L1395,782L1848,1029Z" fill="#948b7e" stroke="#948b7e" stroke-width="1.51"/><path d="M1395,782L836,1017L1240,1164Z" fill="#9d8f79" stroke="#9d8f79" stroke-width="1.51"/><path d="M80,1305L174,1897L523,1744Z" fill="#a39376" stroke="#a39376" stroke-width="1.51"/><path d="M2215,551L1710,729L1848,1029Z" fill="#8f8881" stroke="#8f8881" stroke-width="1.51"/><path d="M2215,551L1848,1029L2223,1167Z" fill="#8f8a86" stroke="#8f8a86" stroke-width="1.51"/><path d="M80,1305L523,1744L553,1694Z" fill="#a29277" stroke="#a29277" stroke-width="1.51"/><path d="M523,1744L174,1897L809,2209Z" fill="#978c7e" stroke="#978c7e" stroke-width="1.51"/><path d="M3113,2696L3567,2672L3269,2330Z" fill="#a0a9b7" stroke="#a0a9b7" stroke-width="1.51"/><path d="M2901,3781L3154,3117L2657,3151Z" fill="#aab2bf" stroke="#aab2bf" stroke-width="1.51"/><path d="M1364,3596L1522,3971L1832,3574Z" fill="#a5a8ae" stroke="#a5a8ae" stroke-width="1.51"/><path d="M1018,4132L1522,3971L1364,3596Z" fill="#b2b0ae" stroke="#b2b0ae" stroke-width="1.51"/><path d="M1018,4132L1364,3596L1262,3527Z" fill="#b1aeaa" stroke="#b1aeaa" stroke-width="1.51"/><path d="M836,1017L408,1256L866,1597Z" fill="#a19177" stroke="#a19177" stroke-width="1.51"/><path d="M174,1897L30,2156L809,2209Z" fill="#9f927d" stroke="#9f927d" stroke-width="1.51"/><path d="M-98,2114L30,2156L174,1897Z" fill="#a69579" stroke="#a69579" stroke-width="1.51"/><path d="M2227,3692L2901,3781L2657,3151Z" fill="#a7afbc" stroke="#a7afbc" stroke-width="1.51"/><path d="M2090,4215L2227,3692L1832,3574Z" fill="#a0a9b7" stroke="#a0a9b7" stroke-width="1.51"/><path d="M391,3592L849,2997L84,3271Z" fill="#bbad96" stroke="#bbad96" stroke-width="1.51"/><path d="M849,2997L582,2776L84,3271Z" fill="#b2a592" stroke="#b2a592" stroke-width="1.51"/><path d="M3071,1584L2945,987L2619,1665Z" fill="#94969b" stroke="#94969b" stroke-width="1.51"/><path d="M3269,2330L3421,1716L3039,2036Z" fill="#909bab" stroke="#909bab" stroke-width="1.51"/><path d="M3749,2241L3421,1716L3269,2330Z" fill="#98a2b1" stroke="#98a2b1" stroke-width="1.51"/><path d="M3066,880L2945,987L3471,945Z" fill="#a9a39a" stroke="#a9a39a" stroke-width="1.51"/><path d="M1710,729L1342,411L1395,782Z" fill="#9e9079" stroke="#9e9079" stroke-width="1.51"/><path d="M2770,543L2215,551L2223,1167Z" fill="#9b9489" stroke="#9b9489" stroke-width="1.51"/><path d="M-228,2526L-3,3134L390,2683Z" fill="#b8a687" stroke="#b8a687" stroke-width="1.51"/><path d="M-90,1604L-98,2114L174,1897Z" fill="#a49376" stroke="#a49376" stroke-width="1.51"/><path d="M1672,4480L1921,4257L1522,3971Z" fill="#aeb3ba" stroke="#aeb3ba" stroke-width="1.51"/><path d="M84,3271L582,2776L390,2683Z" fill="#b3a58d" stroke="#b3a58d" stroke-width="1.51"/><path d="M3154,3117L3567,2672L3113,2696Z" fill="#a6afbc" stroke="#a6afbc" stroke-width="1.51"/><path d="M2335,3951L2901,3781L2227,3692Z" fill="#abb3c0" stroke="#abb3c0" stroke-width="1.51"/><path d="M3154,3117L3678,3186L3567,2672Z" fill="#afb7c3" stroke="#afb7c3" stroke-width="1.51"/><path d="M-3,3134L84,3271L390,2683Z" fill="#bcab8d" stroke="#bcab8d" stroke-width="1.51"/><path d="M-228,2526L390,2683L30,2156Z" fill="#af9e81" stroke="#af9e81" stroke-width="1.51"/><path d="M408,1256L80,1305L553,1694Z" fill="#a79474" stroke="#a79474" stroke-width="1.51"/><path d="M-123,1205L80,1305L79,689Z" fill="#b89e6a" stroke="#b89e6a" stroke-width="1.51"/><path d="M79,689L408,1256L836,1017Z" fill="#af996f" stroke="#af996f" stroke-width="1.51"/><path d="M1395,782L948,537L836,1017Z" fill="#a59375" stroke="#a59375" stroke-width="1.51"/><path d="M1816,166L1342,411L1710,729Z" fill="#9f9078" stroke="#9f9078" stroke-width="1.51"/><path d="M1342,411L948,537L1395,782Z" fill="#a69374" stroke="#a69374" stroke-width="1.51"/><path d="M1921,4257L2090,4215L1832,3574Z" fill="#a2abb9" stroke="#a2abb9" stroke-width="1.51"/><path d="M2335,3951L2928,3896L2901,3781Z" fill="#b4bbc6" stroke="#b4bbc6" stroke-width="1.51"/><path d="M1921,4257L1832,3574L1522,3971Z" fill="#a5abb5" stroke="#a5abb5" stroke-width="1.51"/><path d="M2945,987L2770,543L2223,1167Z" fill="#9d9790" stroke="#9d9790" stroke-width="1.51"/><path d="M3471,945L2945,987L3071,1584Z" fill="#a3a09d" stroke="#a3a09d" stroke-width="1.51"/><path d="M80,1305L-90,1604L174,1897Z" fill="#a99672" stroke="#a99672" stroke-width="1.51"/><path d="M1018,4132L1262,3527L579,3622Z" fill="#b8b1a6" stroke="#b8b1a6" stroke-width="1.51"/><path d="M552,3975L1018,4132L579,3622Z" fill="#c4b8a6" stroke="#c4b8a6" stroke-width="1.51"/><path d="M3421,1716L3544,1506L3071,1584Z" fill="#9a9fa7" stroke="#9a9fa7" stroke-width="1.51"/><path d="M3909,1588L3544,1506L3421,1716Z" fill="#a1a5ac" stroke="#a1a5ac" stroke-width="1.51"/><path d="M-356,2625L-228,2526L-660,2132Z" fill="#baa379" stroke="#baa379" stroke-width="1.51"/><path d="M-98,2114L-228,2526L30,2156Z" fill="#ae9c7b" stroke="#ae9c7b" stroke-width="1.51"/><path d="M2477,4523L2928,3896L2335,3951Z" fill="#b6bdc8" stroke="#b6bdc8" stroke-width="1.51"/><path d="M2901,3781L3152,3800L3154,3117Z" fill="#b4bbc7" stroke="#b4bbc7" stroke-width="1.51"/><path d="M3567,2672L3749,2241L3269,2330Z" fill="#a2abb8" stroke="#a2abb8" stroke-width="1.51"/><path d="M3066,880L2770,543L2945,987Z" fill="#a79f94" stroke="#a79f94" stroke-width="1.51"/><path d="M2215,551L1816,166L1710,729Z" fill="#968c7d" stroke="#968c7d" stroke-width="1.51"/><path d="M391,3592L552,3975L579,3622Z" fill="#c5b7a0" stroke="#c5b7a0" stroke-width="1.51"/><path d="M132,4004L552,3975L391,3592Z" fill="#cdbba0" stroke="#cdbba0" stroke-width="1.51"/><path d="M2928,3896L3152,3800L2901,3781Z" fill="#b9c0ca" stroke="#b9c0ca" stroke-width="1.51"/><path d="M3567,2672L3938,2233L3749,2241Z" fill="#a7afbc" stroke="#a7afbc" stroke-width="1.51"/><path d="M760,404L708,507L948,537Z" fill="#b39a6d" stroke="#b39a6d" stroke-width="1.51"/><path d="M948,537L708,507L836,1017Z" fill="#ad9770" stroke="#ad9770" stroke-width="1.51"/><path d="M3172,254L2643,396L2770,543Z" fill="#b1a38d" stroke="#b1a38d" stroke-width="1.51"/><path d="M2770,543L2643,396L2215,551Z" fill="#a69b88" stroke="#a69b88" stroke-width="1.51"/><path d="M-228,2526L-356,2625L-3,3134Z" fill="#bea983" stroke="#bea983" stroke-width="1.51"/><path d="M-371,3448L132,4004L84,3271Z" fill="#d0ba94" stroke="#d0ba94" stroke-width="1.51"/><path d="M205,4390L624,4249L552,3975Z" fill="#d3c2a8" stroke="#d3c2a8" stroke-width="1.51"/><path d="M-660,2132L-228,2526L-98,2114Z" fill="#b49e77" stroke="#b49e77" stroke-width="1.51"/><path d="M3682,3662L3678,3186L3154,3117Z" fill="#b9c0ca" stroke="#b9c0ca" stroke-width="1.51"/><path d="M1038,123L760,404L948,537Z" fill="#b39a6d" stroke="#b39a6d" stroke-width="1.51"/><path d="M79,689L80,1305L408,1256Z" fill="#b39b6c" stroke="#b39b6c" stroke-width="1.51"/><path d="M1038,123L948,537L1342,411Z" fill="#ae986f" stroke="#ae986f" stroke-width="1.51"/><path d="M1018,4132L1118,4356L1522,3971Z" fill="#bbb7b2" stroke="#bbb7b2" stroke-width="1.51"/><path d="M624,4249L1118,4356L1018,4132Z" fill="#c7beaf" stroke="#c7beaf" stroke-width="1.51"/><path d="M2257,15L1816,166L2215,551Z" fill="#a1937d" stroke="#a1937d" stroke-width="1.51"/><path d="M80,1305L-123,1205L-90,1604Z" fill="#b29a6d" stroke="#b29a6d" stroke-width="1.51"/><path d="M-90,1604L-478,1672L-98,2114Z" fill="#ac9771" stroke="#ac9771" stroke-width="1.51"/><path d="M79,689L836,1017L708,507Z" fill="#b39a6d" stroke="#b39a6d" stroke-width="1.51"/><path d="M2090,4215L2477,4523L2335,3951Z" fill="#b1b9c4" stroke="#b1b9c4" stroke-width="1.51"/><path d="M2928,3896L3198,4236L3152,3800Z" fill="#c0c6cf" stroke="#c0c6cf" stroke-width="1.51"/><path d="M1921,4257L2477,4523L2090,4215Z" fill="#b0b8c4" stroke="#b0b8c4" stroke-width="1.51"/><path d="M1118,4356L1672,4480L1522,3971Z" fill="#b8b7b7" stroke="#b8b7b7" stroke-width="1.51"/><path d="M3749,2241L3909,1588L3421,1716Z" fill="#9ca4b1" stroke="#9ca4b1" stroke-width="1.51"/><path d="M4183,2916L3938,2233L3567,2672Z" fill="#b1b9c4" stroke="#b1b9c4" stroke-width="1.51"/><path d="M3544,1506L3471,945L3071,1584Z" fill="#a3a3a3" stroke="#a3a3a3" stroke-width="1.51"/><path d="M3066,880L3280,585L2770,543Z" fill="#aea494" stroke="#aea494" stroke-width="1.51"/><path d="M3923,913L3471,945L3544,1506Z" fill="#b0aca6" stroke="#b0aca6" stroke-width="1.51"/><path d="M1118,4356L205,4390L1672,4480Z" fill="#c9c0b4" stroke="#c9c0b4" stroke-width="1.51"/><path d="M552,3975L624,4249L1018,4132Z" fill="#c8bdaa" stroke="#c8bdaa" stroke-width="1.51"/><path d="M132,4004L391,3592L84,3271Z" fill="#cab899" stroke="#cab899" stroke-width="1.51"/><path d="M4146,1904L3909,1588L3749,2241Z" fill="#a0a9b7" stroke="#a0a9b7" stroke-width="1.51"/><path d="M410,247L79,689L708,507Z" fill="#bda067" stroke="#bda067" stroke-width="1.51"/><path d="M1733,-122L1038,123L1342,411Z" fill="#ad9870" stroke="#ad9870" stroke-width="1.51"/><path d="M-123,1205L-478,1672L-90,1604Z" fill="#b39b6c" stroke="#b39b6c" stroke-width="1.51"/><path d="M3627,743L3280,585L3471,945Z" fill="#b6ad9d" stroke="#b6ad9d" stroke-width="1.51"/><path d="M3471,945L3280,585L3066,880Z" fill="#b0a79b" stroke="#b0a79b" stroke-width="1.51"/><path d="M-123,1205L-699,978L-478,1672Z" fill="#bda166" stroke="#bda166" stroke-width="1.51"/><path d="M410,247L708,507L760,404Z" fill="#ba9e69" stroke="#ba9e69" stroke-width="1.51"/><path d="M1816,166L1733,-122L1342,411Z" fill="#a69474" stroke="#a69474" stroke-width="1.51"/><path d="M2643,396L2327,52L2215,551Z" fill="#a69984" stroke="#a69984" stroke-width="1.51"/><path d="M3001,-52L2327,52L2643,396Z" fill="#b2a285" stroke="#b2a285" stroke-width="1.51"/><path d="M-371,3448L84,3271L-3,3134Z" fill="#c9b48e" stroke="#c9b48e" stroke-width="1.51"/><path d="M1672,4480L2477,4523L1921,4257Z" fill="#afb7c3" stroke="#afb7c3" stroke-width="1.51"/><path d="M-356,2625L-480,3079L-3,3134Z" fill="#c5af85" stroke="#c5af85" stroke-width="1.51"/><path d="M-776,2810L-480,3079L-356,2625Z" fill="#c9af7f" stroke="#c9af7f" stroke-width="1.51"/><path d="M2327,52L2257,15L2215,551Z" fill="#a7987f" stroke="#a7987f" stroke-width="1.51"/><path d="M3678,3186L4045,3050L3567,2672Z" fill="#b7bec8" stroke="#b7bec8" stroke-width="1.51"/><path d="M3152,3800L3682,3662L3154,3117Z" fill="#bac1cb" stroke="#bac1cb" stroke-width="1.51"/><path d="M3718,4235L3682,3662L3152,3800Z" fill="#c9ced7" stroke="#c9ced7" stroke-width="1.51"/><path d="M-480,3079L-371,3448L-3,3134Z" fill="#cdb58a" stroke="#cdb58a" stroke-width="1.51"/><path d="M-478,1672L-660,2132L-98,2114Z" fill="#af9971" stroke="#af9971" stroke-width="1.51"/><path d="M2700,4579L3198,4236L2928,3896Z" fill="#c3c9d2" stroke="#c3c9d2" stroke-width="1.51"/><path d="M3854,3613L4045,3050L3678,3186Z" fill="#c2c8d1" stroke="#c2c8d1" stroke-width="1.51"/><path d="M3938,2233L4146,1904L3749,2241Z" fill="#a6adbb" stroke="#a6adbb" stroke-width="1.51"/><path d="M2257,15L1733,-122L1816,166Z" fill="#a39277" stroke="#a39277" stroke-width="1.51"/><path d="M4375,1882L4146,1904L4549,2197Z" fill="#adb4c1" stroke="#adb4c1" stroke-width="1.51"/><path d="M3923,913L3627,743L3471,945Z" fill="#b9b1a3" stroke="#b9b1a3" stroke-width="1.51"/><path d="M890,-136L760,404L1038,123Z" fill="#b99e69" stroke="#b99e69" stroke-width="1.51"/><path d="M890,-136L410,247L760,404Z" fill="#bda066" stroke="#bda066" stroke-width="1.51"/><path d="M3923,913L3544,1506L3909,1588Z" fill="#aeadac" stroke="#aeadac" stroke-width="1.51"/><path d="M3280,585L3172,254L2770,543Z" fill="#b5a792" stroke="#b5a792" stroke-width="1.51"/><path d="M-478,1672L-721,2114L-660,2132Z" fill="#b49b6e" stroke="#b49b6e" stroke-width="1.51"/><path d="M-660,2132L-776,2810L-356,2625Z" fill="#c2a979" stroke="#c2a979" stroke-width="1.51"/><path d="M2477,4523L2700,4579L2928,3896Z" fill="#bfc5cf" stroke="#bfc5cf" stroke-width="1.51"/><path d="M1672,4480L2700,4579L2477,4523Z" fill="#b9bfca" stroke="#b9bfca" stroke-width="1.51"/><path d="M3718,4235L3854,3613L3682,3662Z" fill="#ced3da" stroke="#ced3da" stroke-width="1.51"/><path d="M3682,3662L3854,3613L3678,3186Z" fill="#c4cad3" stroke="#c4cad3" stroke-width="1.51"/><path d="M3488,388L3172,254L3280,585Z" fill="#bcae96" stroke="#bcae96" stroke-width="1.51"/><path d="M2327,52L2645,-379L2257,15Z" fill="#b29f7e" stroke="#b29f7e" stroke-width="1.51"/><path d="M2096,-550L1612,-389L1733,-122Z" fill="#af996f" stroke="#af996f" stroke-width="1.51"/><path d="M4582,3202L4183,2916L4045,3050Z" fill="#c7cdd5" stroke="#c7cdd5" stroke-width="1.51"/><path d="M4045,3050L4183,2916L3567,2672Z" fill="#b9c0ca" stroke="#b9c0ca" stroke-width="1.51"/><path d="M-371,3448L-330,4040L132,4004Z" fill="#dac397" stroke="#dac397" stroke-width="1.51"/><path d="M-480,3079L-506,3458L-371,3448Z" fill="#d4ba8a" stroke="#d4ba8a" stroke-width="1.51"/><path d="M-776,2810L-506,3458L-480,3079Z" fill="#d1b783" stroke="#d1b783" stroke-width="1.51"/><path d="M-721,2114L-776,2810L-660,2132Z" fill="#c0a674" stroke="#c0a674" stroke-width="1.51"/><path d="M1612,-389L890,-136L1038,123Z" fill="#b99e69" stroke="#b99e69" stroke-width="1.51"/><path d="M-330,4040L205,4390L132,4004Z" fill="#dec7a0" stroke="#dec7a0" stroke-width="1.51"/><path d="M132,4004L205,4390L552,3975Z" fill="#d5c3a4" stroke="#d5c3a4" stroke-width="1.51"/><path d="M624,4249L205,4390L1118,4356Z" fill="#d1c3ad" stroke="#d1c3ad" stroke-width="1.51"/><path d="M1672,4480L-774,4575L2700,4579Z" fill="#c6c1ba" stroke="#c6c1ba" stroke-width="1.51"/><path d="M3627,743L3488,388L3280,585Z" fill="#bcb09c" stroke="#bcb09c" stroke-width="1.51"/><path d="M4370,1512L3923,913L3909,1588Z" fill="#b5b4b2" stroke="#b5b4b2" stroke-width="1.51"/><path d="M3938,626L3488,388L3627,743Z" fill="#c1b4a0" stroke="#c1b4a0" stroke-width="1.51"/><path d="M4146,1904L4370,1512L3909,1588Z" fill="#adb1b8" stroke="#adb1b8" stroke-width="1.51"/><path d="M4549,2197L4146,1904L3938,2233Z" fill="#acb4c0" stroke="#acb4c0" stroke-width="1.51"/><path d="M3590,-158L3001,-52L3172,254Z" fill="#c6b28f" stroke="#c6b28f" stroke-width="1.51"/><path d="M3172,254L3001,-52L2643,396Z" fill="#b8a88c" stroke="#b8a88c" stroke-width="1.51"/><path d="M-506,3458L-330,4040L-371,3448Z" fill="#dbc191" stroke="#dbc191" stroke-width="1.51"/><path d="M-821,3909L-330,4040L-506,3458Z" fill="#e3c791" stroke="#e3c791" stroke-width="1.51"/><path d="M1733,-122L1612,-389L1038,123Z" fill="#b29a6d" stroke="#b29a6d" stroke-width="1.51"/><path d="M2096,-550L1733,-122L2257,15Z" fill="#ac9875" stroke="#ac9875" stroke-width="1.51"/><path d="M410,247L-289,487L79,689Z" fill="#c5a461" stroke="#c5a461" stroke-width="1.51"/><path d="M79,689L-289,487L-123,1205Z" fill="#c1a363" stroke="#c1a363" stroke-width="1.51"/><path d="M-478,1672L-699,978L-721,2114Z" fill="#bb9f68" stroke="#bb9f68" stroke-width="1.51"/><path d="M-308,31L-289,487L410,247Z" fill="#cda95b" stroke="#cda95b" stroke-width="1.51"/><path d="M890,-136L697,-228L410,247Z" fill="#c3a362" stroke="#c3a362" stroke-width="1.51"/><path d="M909,-784L697,-228L890,-136Z" fill="#c7a65f" stroke="#c7a65f" stroke-width="1.51"/><path d="M4375,1882L4370,1512L4146,1904Z" fill="#aeb3bc" stroke="#aeb3bc" stroke-width="1.51"/><path d="M3198,4236L3718,4235L3152,3800Z" fill="#cacfd7" stroke="#cacfd7" stroke-width="1.51"/><path d="M4582,3202L4597,2640L4183,2916Z" fill="#c8cdd6" stroke="#c8cdd6" stroke-width="1.51"/><path d="M3496,4557L3718,4235L3198,4236Z" fill="#d5d8df" stroke="#d5d8df" stroke-width="1.51"/><path d="M4495,988L3938,626L3923,913Z" fill="#c5bbac" stroke="#c5bbac" stroke-width="1.51"/><path d="M3923,913L3938,626L3627,743Z" fill="#c0b6a5" stroke="#c0b6a5" stroke-width="1.51"/><path d="M3488,388L3590,-158L3172,254Z" fill="#c6b494" stroke="#c6b494" stroke-width="1.51"/><path d="M-289,487L-699,978L-123,1205Z" fill="#c5a561" stroke="#c5a561" stroke-width="1.51"/><path d="M-721,2114L-699,978L-776,2810Z" fill="#b69d6c" stroke="#b69d6c" stroke-width="1.51"/><path d="M4375,1882L4549,2197L4370,1512Z" fill="#afb5c0" stroke="#afb5c0" stroke-width="1.51"/><path d="M4597,2640L4549,2197L3938,2233Z" fill="#b6bdc8" stroke="#b6bdc8" stroke-width="1.51"/><path d="M4597,2640L3938,2233L4183,2916Z" fill="#bac0cb" stroke="#bac0cb" stroke-width="1.51"/><path d="M3001,-52L2645,-379L2327,52Z" fill="#b9a582" stroke="#b9a582" stroke-width="1.51"/><path d="M2628,-410L2645,-379L3218,-505Z" fill="#c6ae81" stroke="#c6ae81" stroke-width="1.51"/><path d="M3376,4648L3496,4557L3198,4236Z" fill="#d5d9df" stroke="#d5d9df" stroke-width="1.51"/><path d="M2700,4579L3376,4648L3198,4236Z" fill="#ced2da" stroke="#ced2da" stroke-width="1.51"/><path d="M-774,4575L3376,4648L2700,4579Z" fill="#b6bbc2" stroke="#b6bbc2" stroke-width="1.51"/><path d="M2645,-379L2350,-538L2257,15Z" fill="#b7a27b" stroke="#b7a27b" stroke-width="1.51"/><path d="M3218,-505L2645,-379L3001,-52Z" fill="#c6af85" stroke="#c6af85" stroke-width="1.51"/><path d="M1612,-389L1550,-555L890,-136Z" fill="#ba9e68" stroke="#ba9e68" stroke-width="1.51"/><path d="M2096,-550L1550,-555L1612,-389Z" fill="#b39b6c" stroke="#b39b6c" stroke-width="1.51"/><path d="M697,-228L253,-153L410,247Z" fill="#c8a65f" stroke="#c8a65f" stroke-width="1.51"/><path d="M519,-795L253,-153L697,-228Z" fill="#cfab59" stroke="#cfab59" stroke-width="1.51"/><path d="M2350,-538L2096,-550L2257,15Z" fill="#b49e77" stroke="#b49e77" stroke-width="1.51"/><path d="M4363,3636L4045,3050L3854,3613Z" fill="#ccd1d9" stroke="#ccd1d9" stroke-width="1.51"/><path d="M-289,487L-583,578L-699,978Z" fill="#ceaa5b" stroke="#ceaa5b" stroke-width="1.51"/><path d="M-422,251L-583,578L-289,487Z" fill="#d1ac58" stroke="#d1ac58" stroke-width="1.51"/><path d="M2628,-410L2350,-538L2645,-379Z" fill="#bea67b" stroke="#bea67b" stroke-width="1.51"/><path d="M4072,4215L4363,3636L3854,3613Z" fill="#d7dbe1" stroke="#d7dbe1" stroke-width="1.51"/><path d="M4072,4215L3854,3613L3718,4235Z" fill="#d7dae1" stroke="#d7dae1" stroke-width="1.51"/><path d="M-308,31L-422,251L-289,487Z" fill="#d3ad56" stroke="#d3ad56" stroke-width="1.51"/><path d="M4363,3636L4582,3202L4045,3050Z" fill="#cfd4db" stroke="#cfd4db" stroke-width="1.51"/><path d="M4363,3636L4624,3847L4582,3202Z" fill="#dcdfe5" stroke="#dcdfe5" stroke-width="1.51"/><path d="M4199,4642L4072,4215L3718,4235Z" fill="#e3e6ea" stroke="#e3e6ea" stroke-width="1.51"/><path d="M4314,4281L4072,4215L4199,4642Z" fill="#e9ebef" stroke="#e9ebef" stroke-width="1.51"/><path d="M-776,2810L-821,3909L-506,3458Z" fill="#dbbf87" stroke="#dbbf87" stroke-width="1.51"/><path d="M-330,4040L-388,4525L205,4390Z" fill="#e7cea1" stroke="#e7cea1" stroke-width="1.51"/><path d="M4094,36L3590,-158L3488,388Z" fill="#d0bc99" stroke="#d0bc99" stroke-width="1.51"/><path d="M4370,1512L4495,988L3923,913Z" fill="#c1bbb3" stroke="#c1bbb3" stroke-width="1.51"/><path d="M4549,2197L4495,988L4370,1512Z" fill="#b9babd" stroke="#b9babd" stroke-width="1.51"/><path d="M4580,742L4495,988L4549,2197Z" fill="#c3bfbb" stroke="#c3bfbb" stroke-width="1.51"/><path d="M253,-153L-308,31L410,247Z" fill="#ceaa5b" stroke="#ceaa5b" stroke-width="1.51"/><path d="M-774,4575L-388,4525L-330,4040Z" fill="#f2d49d" stroke="#f2d49d" stroke-width="1.51"/><path d="M205,4390L-388,4525L1672,4480Z" fill="#d9c9ad" stroke="#d9c9ad" stroke-width="1.51"/><path d="M2628,-410L3218,-505L2350,-538Z" fill="#c5ab7e" stroke="#c5ab7e" stroke-width="1.51"/><path d="M4094,36L3488,388L3938,626Z" fill="#ccbb9f" stroke="#ccbb9f" stroke-width="1.51"/><path d="M-308,31L-428,-17L-422,251Z" fill="#d8b052" stroke="#d8b052" stroke-width="1.51"/><path d="M-422,251L-428,-17L-583,578Z" fill="#d6af54" stroke="#d6af54" stroke-width="1.51"/><path d="M-583,578L-428,-772L-699,978Z" fill="#d9b052" stroke="#d9b052" stroke-width="1.51"/><path d="M-376,-145L-428,-17L-308,31Z" fill="#dbb150" stroke="#dbb150" stroke-width="1.51"/><path d="M-376,-145L-308,31L253,-153Z" fill="#d7af53" stroke="#d7af53" stroke-width="1.51"/><path d="M3590,-158L3218,-505L3001,-52Z" fill="#ccb68c" stroke="#ccb68c" stroke-width="1.51"/><path d="M2350,-538L909,-784L2096,-550Z" fill="#b69c6b" stroke="#b69c6b" stroke-width="1.51"/><path d="M1550,-555L909,-784L890,-136Z" fill="#c3a462" stroke="#c3a462" stroke-width="1.51"/><path d="M2096,-550L909,-784L1550,-555Z" fill="#bca067" stroke="#bca067" stroke-width="1.51"/><path d="M3811,-546L909,-784L2350,-538Z" fill="#bea575" stroke="#bea575" stroke-width="1.51"/><path d="M-295,-638L-376,-145L253,-153Z" fill="#dcb250" stroke="#dcb250" stroke-width="1.51"/><path d="M4495,988L4580,742L3938,626Z" fill="#cdc2af" stroke="#cdc2af" stroke-width="1.51"/><path d="M3590,-158L3811,-546L3218,-505Z" fill="#d8be8f" stroke="#d8be8f" stroke-width="1.51"/><path d="M4597,2640L4580,742L4549,2197Z" fill="#b3b8c3" stroke="#b3b8c3" stroke-width="1.51"/><path d="M4072,4215L4314,4281L4363,3636Z" fill="#e2e4e9" stroke="#e2e4e9" stroke-width="1.51"/><path d="M4199,4642L3718,4235L3496,4557Z" fill="#e1e4e9" stroke="#e1e4e9" stroke-width="1.51"/><path d="M4314,4281L4624,3847L4363,3636Z" fill="#e3e6ea" stroke="#e3e6ea" stroke-width="1.51"/><path d="M4582,3202L4624,3847L4597,2640Z" fill="#d5d9df" stroke="#d5d9df" stroke-width="1.51"/><path d="M4597,2640L4620,-574L4580,742Z" fill="#d0c6b6" stroke="#d0c6b6" stroke-width="1.51"/><path d="M4508,252L4094,36L3938,626Z" fill="#d6c4a5" stroke="#d6c4a5" stroke-width="1.51"/><path d="M909,-784L519,-795L697,-228Z" fill="#cfab5a" stroke="#cfab5a" stroke-width="1.51"/><path d="M-821,3909L-774,4575L-330,4040Z" fill="#f0d197" stroke="#f0d197" stroke-width="1.51"/><path d="M-388,4525L-774,4575L1672,4480Z" fill="#e4cfaa" stroke="#e4cfaa" stroke-width="1.51"/><path d="M4094,36L3944,-269L3590,-158Z" fill="#dac399" stroke="#dac399" stroke-width="1.51"/><path d="M4125,-481L3944,-269L4410,-273Z" fill="#e8cc9b" stroke="#e8cc9b" stroke-width="1.51"/><path d="M3376,4648L4199,4642L3496,4557Z" fill="#e2e5e9" stroke="#e2e5e9" stroke-width="1.51"/><path d="M4314,4281L4199,4642L4624,3847Z" fill="#ebedf0" stroke="#ebedf0" stroke-width="1.51"/><path d="M519,-795L128,-741L253,-153Z" fill="#d7b053" stroke="#d7b053" stroke-width="1.51"/><path d="M4580,742L4508,252L3938,626Z" fill="#d4c5ac" stroke="#d4c5ac" stroke-width="1.51"/><path d="M3944,-269L3811,-546L3590,-158Z" fill="#ddc394" stroke="#ddc394" stroke-width="1.51"/><path d="M3218,-505L3811,-546L2350,-538Z" fill="#d0b685" stroke="#d0b685" stroke-width="1.51"/><path d="M4125,-481L3811,-546L3944,-269Z" fill="#e4c996" stroke="#e4c996" stroke-width="1.51"/><path d="M-376,-145L-428,-772L-428,-17Z" fill="#e2b64a" stroke="#e2b64a" stroke-width="1.51"/><path d="M-428,-17L-428,-772L-583,578Z" fill="#deb34d" stroke="#deb34d" stroke-width="1.51"/><path d="M128,-741L-295,-638L253,-153Z" fill="#ddb24f" stroke="#ddb24f" stroke-width="1.51"/><path d="M4410,-273L3944,-269L4094,36Z" fill="#e2ca9d" stroke="#e2ca9d" stroke-width="1.51"/><path d="M4508,252L4410,-273L4094,36Z" fill="#e3cca4" stroke="#e3cca4" stroke-width="1.51"/><path d="M-295,-638L-428,-772L-376,-145Z" fill="#e6b846" stroke="#e6b846" stroke-width="1.51"/><path d="M128,-741L-428,-772L-295,-638Z" fill="#e7b845" stroke="#e7b845" stroke-width="1.51"/><path d="M519,-795L-428,-772L128,-741Z" fill="#e1b54a" stroke="#e1b54a" stroke-width="1.51"/><path d="M4410,-273L4620,-574L4125,-481Z" fill="#f0d49e" stroke="#f0d49e" stroke-width="1.51"/><path d="M4125,-481L4620,-574L3811,-546Z" fill="#edd099" stroke="#edd099" stroke-width="1.51"/><path d="M3811,-546L4620,-574L909,-784Z" fill="#d2b883" stroke="#d2b883" stroke-width="1.51"/><path d="M4508,252L4620,-574L4410,-273Z" fill="#edd3a4" stroke="#edd3a4" stroke-width="1.51"/><path d="M4580,742L4620,-574L4508,252Z" fill="#e6d0ab" stroke="#e6d0ab" stroke-width="1.51"/><path d="M4624,3847L4620,-574L4597,2640Z" fill="#b3bac6" stroke="#b3bac6" stroke-width="1.51"/></svg>